<svg xmlns="http://www.w3.org/2000/svg" version="1.1" xmlns:xlink="http://www.w3.org/1999/xlink" xmlns:svgjs="http://svgjs.dev/svgjs" width="600" height="600"><svg width="600" height="600" viewBox="0 0 600 600" fill="none" xmlns="http://www.w3.org/2000/svg">
<g clip-path="url(#clip0_25058_1129)">
<path d="M576.443 -0.480957H23.558C10.2617 -0.480957 -0.480469 10.2612 -0.480469 23.5575V576.442C-0.480469 589.738 10.2617 600.481 23.558 600.481H576.443C589.739 600.481 600.481 589.738 600.481 576.442V23.5575C600.481 10.2612 589.739 -0.480957 576.443 -0.480957ZM300.827 304.582L156.596 425.526C152.69 428.831 146.755 426.051 146.755 420.943V373.843C146.755 372.115 147.581 370.387 148.934 369.261L231.416 300L148.934 230.739C148.243 230.194 147.687 229.497 147.31 228.702C146.932 227.907 146.742 227.036 146.755 226.157V179.056C146.755 173.948 152.69 171.169 156.596 174.474L300.827 295.342C303.756 297.746 303.756 302.178 300.827 304.582ZM453.245 420.943C453.245 424.249 450.691 426.953 447.611 426.953H308.639C305.559 426.953 303.005 424.249 303.005 420.943V384.886C303.005 381.58 305.559 378.876 308.639 378.876H447.611C450.691 378.876 453.245 381.58 453.245 384.886V420.943Z" fill="black"></path>
</g>
<defs>
<clipPath id="SvgjsClipPath1452">
<rect width="600" height="600" fill="white"></rect>
</clipPath>
</defs>
</svg><style>@media (prefers-color-scheme: light) { :root { filter: none; } }
@media (prefers-color-scheme: dark) { :root { filter: none; } }
</style></svg>