<svg width="96" height="98" viewBox="0 0 96 98" fill="none" xmlns="http://www.w3.org/2000/svg">
<path d="M25.23 90.9C25.23 90.9 25.49 91.66 26.41 91.64C26.41 91.64 26.64 91.84 26.83 91.73C27.03 91.63 27.54 91.04 27.52 90.88C27.5 90.72 27.37 90.38 27.35 90.07C27.33 89.76 27.38 89.53 27.49 89.24C27.59 88.95 27.66 88.92 27.83 88.64C28 88.36 28.34 88.48 28.29 87.81C28.24 87.14 28.19 87.22 28.36 86.3C28.53 85.38 29.4 84.31 29.57 84.06C29.74 83.81 30.39 83.16 30.46 82.84C30.53 82.52 30.94 81.7 31.17 81.44C31.4 81.17 33.8 78.75 33.9 76.58C33.9 76.58 34.25 76.03 34.39 75.6C34.54 75.17 34.7 74.85 34.82 74.57C34.94 74.28 34.91 74.32 35.05 74.09C35.19 73.86 35.22 73.62 35.61 73.36C36 73.11 37.73 71.68 37.83 71.09C37.83 71.09 38.01 71.07 38.15 70.71C38.29 70.35 38.33 70.36 38.55 70.16C38.77 69.95 40.09 68.76 40.21 67.73C40.21 67.73 40.43 67.11 40.59 66.87C40.75 66.63 40.95 66.43 40.95 66.43C40.95 66.43 40.33 58.39 40.8 57.66C40.8 57.66 40.44 54.89 40.44 54.68C40.44 54.47 39.78 55.61 39.74 55.88C39.7 56.14 37.75 58.64 37.7 59.1C37.65 59.56 36.88 61.47 36.88 61.8C36.88 62.13 36.01 63.4 35.9 64.32C35.8 65.24 35.56 66.53 35.54 67.09C35.54 67.09 34.72 67.93 34.5 68.38C34.5 68.38 33.13 69.75 33 70.54C33 70.54 32.59 70.95 32.41 71.18C32.24 71.41 28.68 75.39 28.62 75.94C28.62 75.94 27.39 78.29 27.58 79.43C27.58 79.43 26.33 81.79 26.45 82.92C26.45 82.92 26.15 84.28 26.31 84.73C26.31 84.73 26.07 85.36 26.01 85.97C26.01 85.97 25.68 86.58 25.56 86.8C25.44 87.02 25.03 87.29 25.1 87.62C25.1 87.62 24.4 87.79 24.37 88.28C24.37 88.28 23.81 88.52 23.65 88.33C23.65 88.33 23.07 88.22 23.01 88.32C23.01 88.32 22.1 88.39 22.48 89.3C22.48 89.3 22.49 89.81 22.61 89.7C22.61 89.7 22.99 90.03 23.14 89.97C23.14 89.97 23.3 90.15 23.43 90.11C23.43 90.11 24.03 90.82 24.19 90.52C24.19 90.52 24.58 91.43 25.19 90.91L25.23 90.9Z" fill="#7B99B3"/>
<path d="M66.86 92.76C66.86 92.76 68.06 92.54 68.36 92.14C68.66 91.74 68.98 91.42 69.26 91.27C69.54 91.12 69.55 91.01 70.06 91.04C70.57 91.06 71.32 90.99 71.55 90.67C71.78 90.35 71.67 90.27 71.94 90.27C72.21 90.27 73.06 89.7 73.11 89.42C73.17 89.14 73.46 89.34 73.66 89.23C73.86 89.13 74.35 88.9 74.11 88.38C74.11 88.38 73.89 88.03 73.61 88.14C73.61 88.14 73.4 88.45 73.24 88.39C73.08 88.33 73.13 87.98 72.81 88.03C72.81 88.03 72.52 87.68 72.09 87.83C72.09 87.83 71.24 88.32 71.1 88.33C70.96 88.34 68.72 88.35 68.63 88.13C68.55 87.91 67.64 86.75 67.42 86.35C67.2 85.95 66.42 84.34 66.43 84.06C66.44 83.78 64.64 78.25 63.6 76.94C63.6 76.94 62.18 74.43 61.6 74.12C61.6 74.12 61.38 73.54 61.36 73.32C61.34 73.1 61.28 72.45 61.09 72.23C60.9 72.01 61.05 71.7099 60.93 71.5899C60.93 71.5899 61 70.69 60.81 70.61C60.81 70.61 60.46 69.73 59.9 69.14C59.9 69.14 59.78 68.56 59.62 68.37C59.62 68.37 59.49 67.92 59.49 67.66V67.29C59.49 67.29 59.77 66.26 59.54 65.5C59.54 65.5 58.64 62.97 58.58 62.57C58.58 62.57 58.37 61.06 58.05 60.53C57.74 60.01 57.19 58.98 56.75 58.4C56.75 58.4 56.29 56.88 55.86 56.69C55.86 56.69 55.43 56.19 55.44 55.78C55.44 55.37 55.48 52.5 54.71 51.85C54.71 51.85 54.44 51.02 54.28 51.16C54.28 51.16 54.52 52.94 54.3 53.61C54.3 53.61 54.05 56.51 54.08 57.01C54.08 57.03 54.08 57.05 54.08 57.06C54.13 57.37 54.58 60.04 54.5 60.17C54.5 60.17 54.61 62.9 54.35 63.38C54.35 63.38 54.36 67.82 53.96 68.07C53.96 68.07 54.38 68.63 54.52 68.94C54.66 69.25 55.49 70.87 55.52 71.12C55.56 71.36 56.11 73.12 56.71 73.33C56.71 73.33 56.98 74.16 56.96 74.4C56.93 74.64 57.85 76.39 57.91 76.74C57.91 76.74 57.97 80.7899 60.7 82.1299C60.7 82.1299 60.86 82.08 60.92 82.58C60.92 82.58 61.35 84.76 62.9 85.9C62.9 85.9 63.23 86.26 63.26 86.42C63.3 86.58 63.87 86.76 64.19 87.2C64.52 87.64 65.72 89.24 65.81 90.21C65.81 90.21 65.7 91.84 66.87 92.75L66.86 92.76Z" fill="#7B99B3"/>
<path d="M13.23 21.7C13.23 21.7 12.65 21.28 12.56 21.36C12.47 21.45 12.32 21.62 12.58 21.93C12.85 22.24 13.56 22.42 13.66 22.58C13.76 22.75 14.43 23.05 14.6 23.12C14.77 23.18 14.92 23.36 15.1 23.43C15.28 23.49 15.75 24.46 16.83 24.45C16.83 24.45 17.89 24.77 18.04 25C18.18 25.23 20.21 25.9 20.63 26.13C21.05 26.36 24.06 28.58 25.35 28.75C25.35 28.75 25.94 28.69 26.34 28.99C26.74 29.29 27.59 29.63 28.71 29.61C28.71 29.61 31.66 31.15 32.58 30.91C32.58 30.91 33.83 31.85 34.05 31.96C34.05 31.96 34.91 32.17 35.06 32.24C35.06 32.24 36.63 30.93 39.39 31.1C39.39 31.1 40.53 30.47 41.63 30.92C41.63 30.92 42.32 30.15 42.91 30.04C42.91 30.04 41.95 29.52 41.51 29.33C41.51 29.33 41.01 29.07 40.41 29.04C40.41 29.04 39.05 27.9 36.29 28.96C36.29 28.96 33.76 27.03 30.58 27.13C30.58 27.13 29.76 26.86 29.65 26.55C29.65 26.55 28.7 25.23 26.99 24.86L26.55 24.7C26.55 24.7 25.73 23.58 22.07 23.56C22.07 23.56 20.71 23.08 20.51 22.84C20.51 22.84 20.38 22.71 20.1 22.71C19.82 22.71 19.44 22.45 19.34 22.32C19.25 22.19 18.7 22.19 18.54 22.11C18.37 22.03 18.32 22.05 18.22 21.91C18.13 21.78 17.73 21.3 17.71 21C17.69 20.7 17.5 20.4 17.02 20.13C16.55 19.86 16.52 19.91 16.42 19.74C16.32 19.57 15.72 18.98 15.62 18.83C15.53 18.68 14.85 18.7 14.68 18.77C14.51 18.84 14.08 18.83 13.79 18.73C13.79 18.73 13.47 18.75 13.59 19.04C13.59 19.04 13.05 18.91 12.94 18.75C12.84 18.58 12.23 18.41 12.13 18.43C12.03 18.45 11.55 18.85 12.35 19.27C12.35 19.27 12.5 19.25 12.67 19.35C12.84 19.45 13.01 19.72 13.24 19.81C13.47 19.9 13.47 19.83 13.62 19.99C13.77 20.15 13.8 20.14 13.76 20.27C13.72 20.4 13.72 20.44 13.7 20.55C13.68 20.66 13.58 20.57 13.35 20.43C13.11 20.3 12.96 20.18 12.84 20.09C12.72 20 12.37 19.76 12.28 19.8C12.19 19.84 12.02 19.83 12.02 19.99C12.02 20.15 11.99 20.28 12.17 20.45C12.35 20.62 12.3 20.6 12.53 20.76C12.76 20.92 12.68 20.79 12.96 21.06C13.24 21.33 13.42 21.35 13.43 21.54C13.45 21.73 13.52 21.74 13.52 21.74L13.21 21.7H13.23Z" fill="#7B99B3"/>
<path d="M82.2301 22.07L82.2601 22.47C82.2601 22.47 82.5801 22.38 82.6901 22.3C82.7901 22.22 82.9001 22.03 83.1301 22.01C83.3701 22 83.5301 21.86 83.6801 21.79C83.8201 21.72 84.0901 21.35 84.2101 21.43C84.3301 21.51 84.5501 21.66 84.4101 21.9C84.2701 22.13 84.1801 22.41 83.8301 22.53C83.4801 22.66 83.3901 22.59 83.1601 22.81C82.9301 23.03 82.9301 23.08 82.6701 23.22C82.4101 23.36 82.1101 23.27 82.0101 23.43C81.9101 23.59 81.5801 23.66 81.4701 23.75C81.3501 23.84 80.8401 24.77 79.5001 24.59C79.5001 24.59 79.0501 24.71 78.9201 24.94C78.7901 25.17 77.9501 25.32 77.6801 25.44C77.6801 25.44 76.0101 26.2 75.6701 26.5C75.3301 26.8 72.0701 29.01 71.1401 28.99C71.1401 28.99 70.5401 29 70.4201 29.24C70.4201 29.24 69.6301 29.78 68.9701 29.75C68.9701 29.75 67.8401 29.67 67.6401 29.85C67.4301 30.03 64.2101 31.28 63.9301 31.59C63.6601 31.9 62.9701 32.26 62.5301 32.35C62.0901 32.44 62.1401 32.41 62.1401 32.41C62.1401 32.41 59.9101 30.35 56.5701 31.15C56.5701 31.15 54.6901 30.47 53.6901 31.26C53.6901 31.26 53.3401 30.51 53.0701 30.43C53.0701 30.43 53.9901 29.41 55.3201 29.58C55.3201 29.58 56.6301 27.7 60.4101 28.96C60.4101 28.96 63.4301 27.11 65.6601 27.19C65.6601 27.19 65.8001 27.01 66.4001 27.03C66.4001 27.03 67.1901 25.51 69.3101 25.07C69.3101 25.07 70.7601 23.63 72.8101 23.79C72.8101 23.79 74.4201 23.6 75.3001 23.09C76.1801 22.59 77.3601 22.11 78.0901 22C78.0901 22 78.9201 20.17 80.2401 20.27C80.2401 20.27 81.2101 19.48 81.4401 19.29C81.6701 19.1 81.6401 19.04 82.1301 19.13C82.6201 19.22 82.6201 19.04 82.8201 18.97C83.0201 18.91 83.4901 18.7 83.5601 18.79C83.6301 18.88 83.8501 18.88 83.7301 19.14C83.7301 19.14 83.9101 18.92 84.1401 18.95C84.1401 18.95 84.6201 18.38 84.8501 18.65C85.0801 18.92 84.8501 19.18 84.4101 19.34C84.4101 19.34 84.2301 19.5 83.9801 19.63C83.7301 19.76 83.0201 20.06 83.0101 20.2C83.0001 20.34 82.9501 20.5 82.8801 20.63C82.8101 20.76 83.1001 20.55 83.2001 20.53C83.3101 20.5 83.7801 20.32 83.9401 20.26C84.1001 20.2 84.5901 19.94 84.9501 20.01C84.9501 20.01 85.3901 20.54 84.4101 20.9C84.4101 20.9 84.0101 20.89 83.9801 20.96C83.9501 21.04 83.6601 21.4 83.1101 21.46C83.1101 21.46 82.6001 22.02 82.2801 22.06L82.2301 22.07Z" fill="#7B99B3"/>
<path d="M44.03 96.98C44.03 96.98 43.36 97.03 43.28 95.97C43.28 95.97 42.74 95.52 43.06 94.99C43.06 94.99 43.32 94.49 43.43 94.49C43.43 94.49 43.24 93.06 43.64 92.87C43.64 92.87 43.4 92.47 43.43 92.23C43.43 92.23 42.18 89.97 42 89.73C42 89.73 41.1 86.99 41.14 86.53C41.14 86.53 39.35 83.29 40.23 80.78C40.23 80.78 40.36 79.93 40.42 79.74C40.48 79.55 40.71 78.39 40.82 78.31C40.93 78.23 40.92 77.46 40.95 77.33C40.98 77.2 41.06 75.92 41.09 75.81C41.12 75.7 41.28 73.92 41.36 73.81C41.44 73.7 41.7 72.24 41.68 71.89C41.66 71.54 41.65 71.41 41.65 71.41C41.65 71.41 41.03 70.32 40.77 66.6C40.77 66.6 40.15 58.24 40.58 57.69C40.58 57.69 40.4 55.19 40.39 54.77C40.37 54.35 40.36 54.27 40.53 53.92C40.71 53.57 40.69 53.28 40.79 53.01C40.79 53.01 40.95 52.37 41 51.89C41.05 51.41 41.19 50.11 41.83 50.03C41.83 50.03 41.29 49.4 41.56 48.72C41.56 48.72 41.77 47.73 41.86 47.73C41.86 47.73 41.72 46.69 42.44 45.73C42.44 45.73 41.43 44.46 41 41.45C41 41.45 40.42 40.44 40.65 39.43C40.65 39.43 40.11 39.03 39.75 37.64C39.75 37.64 39.21 35.94 38 36.01C38 36.01 34.7 36.44 33.08 35.34C33.08 35.34 32.07 35.23 31.73 35.29C31.39 35.35 30.77 35.29 30.66 35.32C30.55 35.35 30.28 35.54 29.91 35.27C29.91 35.27 28.63 35.19 28.33 35.4C28.03 35.61 27.69 35.67 27.27 35.67C27.27 35.67 25.78 35.53 25.65 35.62C25.65 35.62 22.48 36 20.28 34.8C20.28 34.8 19.43 34.93 19.14 34.78C18.85 34.64 17.12 34.89 17.09 34.4C17.09 34.4 16.27 34.67 16.18 34.78C16.18 34.78 14.64 34.94 14.35 34.41C14.35 34.41 13.6 34.65 13.31 34.19C13.31 34.19 12.43 34.48 12.27 34.19C12.27 34.19 11.84 34.33 11.69 34.16C11.69 34.16 11.16 34.5 10.62 34.08C10.62 34.08 10.54 33.81 11.28 33.63L11.55 33.6C11.55 33.6 11.07 33.54 10.8 33.38C10.8 33.38 10 33.48 9.97001 33.4C9.97001 33.4 9.36001 33.34 9.44001 32.94C9.44001 32.94 9.38001 32.68 9.82001 32.71C9.82001 32.71 10.57 32.76 10.67 32.71C10.77 32.66 11.17 32.58 11.28 32.58C11.39 32.58 10.67 32.24 10.58 32.13C10.58 32.13 9.76001 32.63 9.30001 32C9.30001 32 9.01001 31.7 9.16001 31.57C9.30001 31.44 10.1 31.55 10.33 31.51C10.56 31.46 10.89 31.29 11.08 31.38C11.27 31.48 11.83 31.43 11.91 31.4C11.99 31.37 12.01 31.14 12.47 31.21C12.93 31.27 13.11 31.16 13.11 31.16L12.68 30.89C12.68 30.89 12.04 31.05 11.83 30.76C11.83 30.76 11.04 30.97 10.66 30.36C10.66 30.36 10.53 30.02 11.27 30.12C11.27 30.12 12.2 30.18 12.33 30.1C12.33 30.1 12.84 29.91 13.24 30.05C13.24 30.05 13.91 30.64 14.07 30.64C14.07 30.64 15.14 30.67 15.34 30.93C15.34 30.93 16.48 31.6 16.83 31.83C16.83 31.83 17.23 31.76 17.34 31.8C17.45 31.83 17.77 31.86 17.95 31.85C18.13 31.83 18.56 31.51 18.78 31.75C19 31.99 19.95 32.07 20.21 31.94C20.47 31.81 22.55 31.17 24.31 31.83C24.31 31.83 25.05 31.85 25.29 31.73C25.53 31.62 27.45 31.51 27.97 32.08C28.48 32.66 29.36 32.53 29.81 32.43C30.26 32.33 31 31.71 34.01 31.97C34.01 31.97 34.91 32.13 34.97 32.24C34.97 32.24 36.25 30.88 39.26 30.99C39.26 30.99 40.69 30.48 41.65 30.89C41.65 30.89 42.5 30.03 42.93 30.01C42.93 30.01 43.21 30.06 43.23 29.88C43.26 29.69 42.6 29.75 42.6 29.43C42.6 29.11 42.8 29.03 42.6 28.71C42.4 28.39 42.13 28.64 42.07 28.18C42 27.71 41.98 27.59 41.98 27.59C41.98 27.59 41.54 27.28 41.57 27.62C41.6 27.95 41.24 27.46 41.44 27.22C41.64 26.98 41.57 26.93 41.52 26.73C41.47 26.53 41.07 26.45 41.21 26.13C41.36 25.81 40.93 25.45 40.86 25.78C40.79 26.11 40.45 25.98 40.59 25.67C40.74 25.36 40.54 24.55 41.02 24.66C41.5 24.77 41.49 24.85 41.54 24.63C41.59 24.42 41.1 24.12 41.26 23.68C41.42 23.24 41.17 23.23 41.06 23.37C40.95 23.52 40.82 22.48 41.35 22.54C41.88 22.61 42.26 22.66 42.24 22.43C42.23 22.2 42.01 22.24 42.03 21.98C42.04 21.71 41.75 21.85 41.74 22.02C41.73 22.19 41.63 21.38 41.87 21.18C42.11 20.98 42.51 20.7 42.64 20.78C42.77 20.86 43.15 21.29 43.19 21.07C43.23 20.86 43.2 20.96 43.19 20.67C43.18 20.38 43.2 19.59 43.9 19.4C44.59 19.21 44.45 19.25 44.75 18.92C45.06 18.59 44.82 18.47 45.28 18.39C45.75 18.31 47.56 18.26 48.03 18.62C48.03 18.62 49.95 17.94 50.91 18.57C51.75 19.12 52 19.1 52.05 19.24C52.05 19.26 52.06 19.28 52.06 19.32C52.06 19.56 51.87 19.52 52.07 19.52C52.27 19.52 52.43 19.45 52.47 19.53C52.51 19.61 53.25 19.76 52.87 21.01C52.87 21.01 53.08 21.12 53.24 21.17C53.4 21.22 53.19 21.37 53.48 21.33C53.77 21.29 53.59 20.5 54.29 21.21C54.29 21.21 54.85 21.5 54.08 22.37C54.08 22.37 54.08 22.5 54.48 22.46C54.88 22.43 54.85 22.73 54.69 23.11C54.53 23.5 54.4 23.45 54.46 23.75C54.52 24.05 54.05 24.03 54.58 24.06C55.11 24.09 55.06 23.62 55.21 23.98C55.36 24.35 55.45 24.19 55.41 24.61C55.37 25.03 54.87 25.14 54.88 25.54C54.89 25.94 55.34 25.48 55.08 26.19C54.82 26.9 55.17 26.67 54.7 26.86C54.23 27.05 54.33 26.56 54.21 27.28C54.09 28 54.17 27.75 53.96 28C53.75 28.26 53.71 28.08 53.74 28.33C53.76 28.59 53.71 28.91 53.33 29.08C52.95 29.26 53.02 28.98 52.65 29.31C52.28 29.64 51.92 29.77 52.07 29.92C52.07 29.92 52.61 29.96 53.03 30.4C53.03 30.4 53.56 30.76 53.65 31.23C53.65 31.23 54.35 30.51 56.5 31.03C56.5 31.03 58.8 30.29 61.27 31.76C61.27 31.76 61.91 32.14 62.1 32.38C62.1 32.39 62.12 32.4 62.13 32.41C62.29 32.64 64.74 31.5 67.01 32.63C67.01 32.63 67.61 32.72 68.04 32.56C68.47 32.41 69.24 31.88 70.53 32.09C70.53 32.09 71.18 32.08 71.53 32.05C71.87 32.02 73.46 31.87 74.17 32.01C74.17 32.01 74.62 32.21 75.56 32.35C76.49 32.49 76.69 32.13 77.42 32.31C77.42 32.31 77.98 32.31 78.16 32.22C78.35 32.13 79.04 32.03 79.27 32.15C79.5 32.27 79.8 31.95 80.1 31.83C80.4 31.71 81 30.97 81.51 30.96C82.02 30.95 82.44 30.84 83.06 30.98C83.68 31.12 84.23 30.89 84.31 30.83C84.39 30.76 84.8 30.85 85.13 30.97C85.46 31.09 85.52 31.18 85.75 31.18C85.98 31.18 86.27 31.26 86.27 31.31C86.27 31.36 86.54 31.58 86.3 31.89C86.3 31.89 86.3 32.07 86.56 32.06C86.83 32.05 87.08 32.08 87.17 32.15C87.17 32.15 87.46 32.64 86.9 32.78C86.9 32.78 86.73 32.75 86.55 32.84C86.36 32.93 86.57 32.98 86.59 33.09C86.61 33.2 86.74 33.59 85.99 33.62C85.99 33.62 85.52 33.44 85.45 33.55C85.45 33.55 85.11 33.94 84.57 33.61C84.57 33.61 84.27 33.93 83.66 33.81C83.66 33.81 83.53 34.04 83.66 34.11C83.79 34.18 84.17 34.02 84.33 34.02C84.49 34.02 84.73 34.08 84.99 34.09C85.26 34.1 85.3 34.07 85.59 34.07C85.88 34.07 85.98 34.27 85.97 34.36C85.97 34.45 85.66 34.89 85.08 34.64C85.08 34.64 83.97 35.03 83.55 34.84C83.55 34.84 83.38 34.78 83.29 34.81C83.2 34.83 82.81 35.14 82.29 34.93C82.29 34.93 81.1 35.67 79.85 35.04C79.85 35.04 79.6 34.95 79.54 35.04C79.47 35.13 79.45 35.22 79.37 35.22C79.29 35.22 77.02 35.23 76.84 35.33C76.66 35.43 75.98 35.33 75.81 35.39C75.81 35.39 73.81 35.93 73.46 36.11C73.1 36.29 70.61 36.62 69.74 36.08C69.74 36.08 67.99 36.12 67.61 35.75C67.61 35.75 67.09 35.5 66.88 35.63C66.67 35.76 65.11 35.97 64.8 35.73C64.8 35.73 62.79 35.63 62.68 35.7C62.68 35.7 61.32 36.39 60.2 36.1C60.2 36.1 59.05 35.7 58.8 35.79C58.56 35.88 57.63 36.17 57.48 36.38C57.32 36.59 56.85 36.8 56.67 37.28C56.49 37.76 56.19 38.06 56.02 38.27C56.02 38.27 55.85 38.77 55.88 39.53C55.88 39.53 55.6 40.61 55.11 41.51C55.11 41.51 54.88 42.16 54.83 42.52C54.79 42.88 54.6 44.24 54.48 44.58C54.48 44.58 54.16 45.37 53.88 45.59C53.88 45.59 54.26 45.92 54.21 46.56C54.17 47.19 54.16 47.78 54.31 47.86C54.46 47.94 54.86 48.75 54.17 49.93C54.17 49.93 54.19 49.97 54.21 50.4C54.23 50.82 54.57 52.51 54.47 53.37C54.37 54.24 54.04 57 54.2 57.57C54.37 58.14 54.91 62.13 54.53 63.67C54.53 63.67 54.41 66.9 54.28 67.4C54.28 67.4 53.47 70.56 53.29 71C53.29 71 52.71 72.24 52.61 72.85C52.51 73.46 52.42 74.04 52.52 74.65C52.62 75.26 52.6 75.79 52.44 76.06C52.29 76.33 51.99 76.58 51.97 76.93C51.97 77.27 52.03 77.8 51.44 78.58C51.44 78.58 51.38 79.98 51.42 80.51C51.45 81.04 51.62 82.19 51.64 82.62C51.66 83.05 51.87 86.35 51.69 86.95C51.51 87.55 51.67 86.91 51.67 86.91C51.67 86.91 51.44 89.68 51.62 90.51C51.81 91.33 52.01 92.12 52.16 92.6C52.32 93.08 52.53 93.52 52.75 93.65C52.97 93.78 53.97 94.17 55.22 95.18C55.22 95.18 56.24 95.59 56.79 95.69C57.33 95.79 57.51 95.79 57.8 95.79C58.09 95.79 58.3 95.87 58.39 95.92C58.48 95.98 59.1 96.18 59.26 95.94C59.26 95.94 59.67 95.97 59.53 96.54C59.53 96.54 59.32 97.13 58.79 97.14L57.87 97.12C57.87 97.12 57.75 96.81 57.59 96.88C57.44 96.95 57.75 97.11 57.31 97.11C56.87 97.11 56.89 97.02 56.81 96.9C56.73 96.78 56.74 96.57 56.64 96.78C56.54 96.99 56.81 97.07 56.5 97.1C56.19 97.13 55.6 97.19 55.39 97.12C55.18 97.05 54.34 96.74 54.11 96.8C53.89 96.86 52.49 96.6 52.31 96.67C52.13 96.74 51.72 96.63 51.5 96.83C51.28 97.03 49.54 97.42 49.26 97.13C48.97 96.84 48.58 96.39 48.62 96.11C48.65 95.83 48.58 95.17 48.72 94.99C48.86 94.81 49.09 95 49.05 94.46C49.02 93.92 49.15 93.51 49.02 93.12C48.89 92.73 47.95 90.83 47.81 89.85C47.66 88.86 47.1 87.13 47.74 86.52C47.74 86.52 46.42 84.89 46.36 82.98C46.31 81.07 46.68 79.13 46.9 78.74C47.12 78.35 47.25 77.73 47.25 77.4C47.25 77.07 47.39 75.98 47.51 75.56C47.63 75.14 47.51 74.95 47.52 74.65C47.54 74.35 47.41 74.31 47.45 73.86C47.49 73.42 47.47 72.64 47.6 72.12C47.73 71.6 47.58 71.27 47.6 70.69C47.62 70.11 47.82 69.98 47.6 69.21C47.38 68.44 47.15 66.4 47.28 65.88L47.31 65.56C47.31 65.56 46.88 66.21 46.82 66.58C46.76 66.95 46.24 68.28 46.26 69.39C46.28 70.5 46.43 71.13 46.35 71.89C46.27 72.64 46.23 72.89 46.07 73.39C45.91 73.89 46.19 74.29 45.73 74.76C45.73 74.76 45.66 75.61 45.42 75.94C45.42 75.94 45.55 76.65 45.23 76.93C44.92 77.2 44.87 77.85 44.81 78.19C44.81 78.2 44.81 78.21 44.81 78.22C44.75 78.54 44.45 80.08 44.78 80.59C44.78 80.59 45.63 82.02 45.22 85.24C45.22 85.24 44.99 86.18 45.35 87.13C45.35 87.13 45.53 88.37 45.48 89.09C45.48 89.09 45.4 90.91 46.15 92.04C46.89 93.17 46.93 93.48 46.69 93.75C46.69 93.75 47.32 94.84 47.5 95.3C47.5 95.3 48.29 95.63 48.37 95.89C48.45 96.14 48.83 96.66 48.47 97.26C48.47 97.26 47.98 97.77 47.16 97.19C47.16 97.19 47.1 96.99 47.02 97.1C46.93 97.21 46.9 97.49 46.41 97.51C46.41 97.51 45.97 97.54 45.87 97.02C45.87 97.02 45.33 97.4 45.07 96.98C45.07 96.98 44.67 97.31 44.53 96.92C44.53 96.92 44.37 97.41 43.97 96.96" fill="#497593"/>
<path d="M87.45 18.37H9.10999V97.22H87.45V18.37Z" stroke="#7B99B3" stroke-width="0.5" stroke-miterlimit="10"/>
<path d="M95.53 49.24C95.53 75.88 74.37 97.48 48.26 97.48C22.15 97.48 1 75.88 1 49.24C1 22.6 22.16 1 48.27 1C74.38 1 95.54 22.6 95.54 49.24H95.53Z" stroke="#497593" stroke-width="0.5" stroke-miterlimit="10"/>
</svg>
