<svg width="386" height="206" viewBox="0 0 386 206" fill="none" xmlns="http://www.w3.org/2000/svg">
<g clip-path="url(#clip0_666_990)">
<path d="M169.49 90.15C169.49 90.15 169.75 90.91 170.67 90.89C170.67 90.89 170.9 91.09 171.09 90.98C171.29 90.88 171.8 90.29 171.78 90.13C171.76 89.97 171.63 89.63 171.61 89.32C171.59 89.01 171.64 88.78 171.75 88.49C171.85 88.2 171.92 88.17 172.09 87.89C172.26 87.61 172.6 87.73 172.55 87.06C172.5 86.39 172.45 86.47 172.62 85.55C172.79 84.63 173.66 83.56 173.83 83.31C174 83.06 174.65 82.41 174.72 82.09C174.79 81.77 175.2 80.95 175.43 80.69C175.66 80.42 178.06 78 178.16 75.83C178.16 75.83 178.51 75.28 178.65 74.85C178.8 74.42 178.96 74.1 179.08 73.82C179.2 73.53 179.17 73.57 179.31 73.34C179.45 73.11 179.48 72.87 179.87 72.61C180.26 72.36 181.99 70.93 182.09 70.34C182.09 70.34 182.27 70.32 182.41 69.96C182.55 69.6 182.59 69.61 182.81 69.41C183.03 69.2 184.35 68.01 184.47 66.98C184.47 66.98 184.69 66.36 184.85 66.12C185.01 65.88 185.21 65.68 185.21 65.68C185.21 65.68 184.59 57.64 185.06 56.91C185.06 56.91 184.7 54.14 184.7 53.93C184.7 53.72 184.04 54.86 184 55.13C183.96 55.39 182.01 57.89 181.96 58.35C181.91 58.81 181.14 60.72 181.14 61.05C181.14 61.38 180.27 62.65 180.16 63.57C180.06 64.49 179.82 65.78 179.8 66.34C179.8 66.34 178.98 67.18 178.76 67.63C178.76 67.63 177.39 69 177.26 69.79C177.26 69.79 176.85 70.2 176.67 70.43C176.5 70.66 172.94 74.64 172.88 75.19C172.88 75.19 171.65 77.54 171.84 78.68C171.84 78.68 170.59 81.04 170.71 82.17C170.71 82.17 170.41 83.53 170.57 83.98C170.57 83.98 170.33 84.61 170.27 85.22C170.27 85.22 169.94 85.83 169.82 86.05C169.7 86.27 169.29 86.54 169.36 86.87C169.36 86.87 168.66 87.04 168.63 87.53C168.63 87.53 168.07 87.77 167.91 87.58C167.91 87.58 167.33 87.47 167.27 87.57C167.27 87.57 166.36 87.64 166.74 88.55C166.74 88.55 166.75 89.06 166.87 88.95C166.87 88.95 167.25 89.28 167.4 89.22C167.4 89.22 167.56 89.4 167.69 89.36C167.69 89.36 168.29 90.07 168.45 89.77C168.45 89.77 168.84 90.68 169.45 90.16L169.49 90.15Z" fill="#7B99B3"/>
<path d="M211.12 92.01C211.12 92.01 212.32 91.79 212.62 91.39C212.92 90.99 213.24 90.67 213.52 90.52C213.8 90.37 213.81 90.26 214.32 90.29C214.83 90.31 215.58 90.24 215.81 89.92C216.04 89.6 215.93 89.52 216.2 89.52C216.47 89.52 217.32 88.95 217.37 88.67C217.43 88.39 217.72 88.59 217.92 88.48C218.12 88.38 218.61 88.15 218.37 87.63C218.37 87.63 218.15 87.28 217.87 87.39C217.87 87.39 217.66 87.7 217.5 87.64C217.34 87.58 217.39 87.23 217.07 87.28C217.07 87.28 216.78 86.93 216.35 87.08C216.35 87.08 215.5 87.57 215.36 87.58C215.22 87.59 212.98 87.6 212.89 87.38C212.81 87.16 211.9 86 211.68 85.6C211.46 85.2 210.68 83.59 210.69 83.31C210.7 83.03 208.9 77.5 207.86 76.19C207.86 76.19 206.44 73.68 205.86 73.37C205.86 73.37 205.64 72.79 205.62 72.57C205.6 72.35 205.54 71.7 205.35 71.48C205.16 71.26 205.31 70.9599 205.19 70.8399C205.19 70.8399 205.26 69.94 205.07 69.86C205.07 69.86 204.72 68.98 204.16 68.39C204.16 68.39 204.04 67.81 203.88 67.62C203.88 67.62 203.75 67.17 203.75 66.91V66.54C203.75 66.54 204.03 65.51 203.8 64.75C203.8 64.75 202.9 62.22 202.84 61.82C202.84 61.82 202.63 60.31 202.31 59.78C202 59.26 201.45 58.23 201.01 57.65C201.01 57.65 200.55 56.13 200.12 55.94C200.12 55.94 199.69 55.44 199.7 55.03C199.7 54.62 199.74 51.75 198.97 51.1C198.97 51.1 198.7 50.27 198.54 50.41C198.54 50.41 198.78 52.19 198.56 52.86C198.56 52.86 198.31 55.76 198.34 56.26C198.34 56.28 198.34 56.3 198.34 56.31C198.39 56.62 198.84 59.29 198.76 59.42C198.76 59.42 198.87 62.15 198.61 62.63C198.61 62.63 198.62 67.07 198.22 67.32C198.22 67.32 198.64 67.88 198.78 68.19C198.92 68.5 199.75 70.12 199.78 70.37C199.82 70.61 200.37 72.37 200.97 72.58C200.97 72.58 201.24 73.41 201.22 73.65C201.19 73.89 202.11 75.64 202.17 75.99C202.17 75.99 202.23 80.0399 204.96 81.3799C204.96 81.3799 205.12 81.33 205.18 81.83C205.18 81.83 205.61 84.01 207.16 85.15C207.16 85.15 207.49 85.51 207.52 85.67C207.56 85.83 208.13 86.01 208.45 86.45C208.78 86.89 209.98 88.49 210.07 89.46C210.07 89.46 209.96 91.09 211.13 92L211.12 92.01Z" fill="#7B99B3"/>
<path d="M157.49 20.9501C157.49 20.9501 156.91 20.5301 156.82 20.6101C156.73 20.7001 156.58 20.8701 156.84 21.1801C157.11 21.4901 157.82 21.6701 157.92 21.8301C158.02 22.0001 158.69 22.3001 158.86 22.3701C159.03 22.4301 159.18 22.6101 159.36 22.6801C159.54 22.7401 160.01 23.7101 161.09 23.7001C161.09 23.7001 162.15 24.0201 162.3 24.2501C162.44 24.4801 164.47 25.1501 164.89 25.3801C165.31 25.6101 168.32 27.8301 169.61 28.0001C169.61 28.0001 170.2 27.9401 170.6 28.2401C171 28.5401 171.85 28.8801 172.97 28.8601C172.97 28.8601 175.92 30.4001 176.84 30.1601C176.84 30.1601 178.09 31.1001 178.31 31.2101C178.31 31.2101 179.17 31.4201 179.32 31.4901C179.32 31.4901 180.89 30.1801 183.65 30.3501C183.65 30.3501 184.79 29.7201 185.89 30.1701C185.89 30.1701 186.58 29.4001 187.17 29.2901C187.17 29.2901 186.21 28.7701 185.77 28.5801C185.77 28.5801 185.27 28.3201 184.67 28.2901C184.67 28.2901 183.31 27.1501 180.55 28.2101C180.55 28.2101 178.02 26.2801 174.84 26.3801C174.84 26.3801 174.02 26.1101 173.91 25.8001C173.91 25.8001 172.96 24.4801 171.25 24.1101L170.81 23.9501C170.81 23.9501 169.99 22.8301 166.33 22.8101C166.33 22.8101 164.97 22.3301 164.77 22.0901C164.77 22.0901 164.64 21.9601 164.36 21.9601C164.08 21.9601 163.7 21.7001 163.6 21.5701C163.51 21.4401 162.96 21.4401 162.8 21.3601C162.63 21.2801 162.58 21.3001 162.48 21.1601C162.39 21.0301 161.99 20.5501 161.97 20.2501C161.95 19.9501 161.76 19.6501 161.28 19.3801C160.81 19.1101 160.78 19.1601 160.68 18.9901C160.58 18.8201 159.98 18.2301 159.88 18.0801C159.79 17.9301 159.11 17.9501 158.94 18.0201C158.77 18.0901 158.34 18.0801 158.05 17.9801C158.05 17.9801 157.73 18.0001 157.85 18.2901C157.85 18.2901 157.31 18.1601 157.2 18.0001C157.1 17.8301 156.49 17.6601 156.39 17.6801C156.29 17.7001 155.81 18.1001 156.61 18.5201C156.61 18.5201 156.76 18.5001 156.93 18.6001C157.1 18.7001 157.27 18.9701 157.5 19.0601C157.73 19.1501 157.73 19.0801 157.88 19.2401C158.03 19.4001 158.06 19.3901 158.02 19.5201C157.98 19.6501 157.98 19.6901 157.96 19.8001C157.94 19.9101 157.84 19.8201 157.61 19.6801C157.37 19.5501 157.22 19.4301 157.1 19.3401C156.98 19.2501 156.63 19.0101 156.54 19.0501C156.45 19.0901 156.28 19.0801 156.28 19.2401C156.28 19.4001 156.25 19.5301 156.43 19.7001C156.61 19.8701 156.56 19.8501 156.79 20.0101C157.02 20.1701 156.94 20.0401 157.22 20.3101C157.5 20.5801 157.68 20.6001 157.69 20.7901C157.71 20.9801 157.78 20.9901 157.78 20.9901L157.47 20.9501H157.49Z" fill="#7B99B3"/>
<path d="M226.49 21.32L226.52 21.72C226.52 21.72 226.84 21.63 226.95 21.55C227.05 21.47 227.16 21.28 227.39 21.26C227.63 21.25 227.79 21.11 227.94 21.04C228.08 20.97 228.35 20.6 228.47 20.68C228.59 20.76 228.81 20.91 228.67 21.15C228.53 21.38 228.44 21.66 228.09 21.78C227.74 21.91 227.65 21.84 227.42 22.06C227.19 22.28 227.19 22.33 226.93 22.47C226.67 22.61 226.37 22.52 226.27 22.68C226.17 22.84 225.84 22.91 225.73 23C225.61 23.09 225.1 24.02 223.76 23.84C223.76 23.84 223.31 23.96 223.18 24.19C223.05 24.42 222.21 24.57 221.94 24.69C221.94 24.69 220.27 25.45 219.93 25.75C219.59 26.05 216.33 28.26 215.4 28.24C215.4 28.24 214.8 28.25 214.68 28.49C214.68 28.49 213.89 29.03 213.23 29C213.23 29 212.1 28.92 211.9 29.1C211.69 29.28 208.47 30.53 208.19 30.84C207.92 31.15 207.23 31.51 206.79 31.6C206.35 31.69 206.4 31.66 206.4 31.66C206.4 31.66 204.17 29.6 200.83 30.4C200.83 30.4 198.95 29.72 197.95 30.51C197.95 30.51 197.6 29.76 197.33 29.68C197.33 29.68 198.25 28.66 199.58 28.83C199.58 28.83 200.89 26.95 204.67 28.21C204.67 28.21 207.69 26.36 209.92 26.44C209.92 26.44 210.06 26.26 210.66 26.28C210.66 26.28 211.45 24.76 213.57 24.32C213.57 24.32 215.02 22.88 217.07 23.04C217.07 23.04 218.68 22.85 219.56 22.34C220.44 21.84 221.62 21.36 222.35 21.25C222.35 21.25 223.18 19.42 224.5 19.52C224.5 19.52 225.47 18.73 225.7 18.54C225.93 18.35 225.9 18.29 226.39 18.38C226.88 18.47 226.88 18.29 227.08 18.22C227.28 18.16 227.75 17.95 227.82 18.04C227.89 18.13 228.11 18.13 227.99 18.39C227.99 18.39 228.17 18.17 228.4 18.2C228.4 18.2 228.88 17.63 229.11 17.9C229.34 18.17 229.11 18.43 228.67 18.59C228.67 18.59 228.49 18.75 228.24 18.88C227.99 19.01 227.28 19.31 227.27 19.45C227.26 19.59 227.21 19.75 227.14 19.88C227.07 20.01 227.36 19.8 227.46 19.78C227.57 19.75 228.04 19.57 228.2 19.51C228.36 19.45 228.85 19.19 229.21 19.26C229.21 19.26 229.65 19.79 228.67 20.15C228.67 20.15 228.27 20.14 228.24 20.21C228.21 20.29 227.92 20.65 227.37 20.71C227.37 20.71 226.86 21.27 226.54 21.31L226.49 21.32Z" fill="#7B99B3"/>
<path d="M188.29 96.2301C188.29 96.2301 187.62 96.2801 187.54 95.2201C187.54 95.2201 187 94.7701 187.32 94.2401C187.32 94.2401 187.58 93.7401 187.69 93.7401C187.69 93.7401 187.5 92.3101 187.9 92.1201C187.9 92.1201 187.66 91.7201 187.69 91.4801C187.69 91.4801 186.44 89.2201 186.26 88.9801C186.26 88.9801 185.36 86.2401 185.4 85.7801C185.4 85.7801 183.61 82.5401 184.49 80.0301C184.49 80.0301 184.62 79.1801 184.68 78.9901C184.74 78.8001 184.97 77.6401 185.08 77.5601C185.19 77.4801 185.18 76.7101 185.21 76.5801C185.24 76.4501 185.32 75.1701 185.35 75.0601C185.38 74.9501 185.54 73.1701 185.62 73.0601C185.7 72.9501 185.96 71.4901 185.94 71.1401C185.92 70.7901 185.91 70.6601 185.91 70.6601C185.91 70.6601 185.29 69.5701 185.03 65.8501C185.03 65.8501 184.41 57.4901 184.84 56.9401C184.84 56.9401 184.66 54.4401 184.65 54.0201C184.63 53.6001 184.62 53.5201 184.79 53.1701C184.97 52.8201 184.95 52.5301 185.05 52.2601C185.05 52.2601 185.21 51.6201 185.26 51.1401C185.31 50.6601 185.45 49.3601 186.09 49.2801C186.09 49.2801 185.55 48.6501 185.82 47.9701C185.82 47.9701 186.03 46.9801 186.12 46.9801C186.12 46.9801 185.98 45.9401 186.7 44.9801C186.7 44.9801 185.69 43.7101 185.26 40.7001C185.26 40.7001 184.68 39.6901 184.91 38.6801C184.91 38.6801 184.37 38.2801 184.01 36.8901C184.01 36.8901 183.47 35.1901 182.26 35.2601C182.26 35.2601 178.96 35.6901 177.34 34.5901C177.34 34.5901 176.33 34.4801 175.99 34.5401C175.65 34.6001 175.03 34.5401 174.92 34.5701C174.81 34.6001 174.54 34.7901 174.17 34.5201C174.17 34.5201 172.89 34.4401 172.59 34.6501C172.29 34.8601 171.95 34.9201 171.53 34.9201C171.53 34.9201 170.04 34.7801 169.91 34.8701C169.91 34.8701 166.74 35.2501 164.54 34.0501C164.54 34.0501 163.69 34.1801 163.4 34.0301C163.11 33.8901 161.38 34.1401 161.35 33.6501C161.35 33.6501 160.53 33.9201 160.44 34.0301C160.44 34.0301 158.9 34.1901 158.61 33.6601C158.61 33.6601 157.86 33.9001 157.57 33.4401C157.57 33.4401 156.69 33.7301 156.53 33.4401C156.53 33.4401 156.1 33.5801 155.95 33.4101C155.95 33.4101 155.42 33.7501 154.88 33.3301C154.88 33.3301 154.8 33.0601 155.54 32.8801L155.81 32.8501C155.81 32.8501 155.33 32.7901 155.06 32.6301C155.06 32.6301 154.26 32.7301 154.23 32.6501C154.23 32.6501 153.62 32.5901 153.7 32.1901C153.7 32.1901 153.64 31.9301 154.08 31.9601C154.08 31.9601 154.83 32.0101 154.93 31.9601C155.03 31.9101 155.43 31.8301 155.54 31.8301C155.65 31.8301 154.93 31.4901 154.84 31.3801C154.84 31.3801 154.02 31.8801 153.56 31.2501C153.56 31.2501 153.27 30.9501 153.42 30.8201C153.56 30.6901 154.36 30.8001 154.59 30.7601C154.82 30.7101 155.15 30.5401 155.34 30.6301C155.53 30.7301 156.09 30.6801 156.17 30.6501C156.25 30.6201 156.27 30.3901 156.73 30.4601C157.19 30.5201 157.37 30.4101 157.37 30.4101L156.94 30.1401C156.94 30.1401 156.3 30.3001 156.09 30.0101C156.09 30.0101 155.3 30.2201 154.92 29.6101C154.92 29.6101 154.79 29.2701 155.53 29.3701C155.53 29.3701 156.46 29.4301 156.59 29.3501C156.59 29.3501 157.1 29.1601 157.5 29.3001C157.5 29.3001 158.17 29.8901 158.33 29.8901C158.33 29.8901 159.4 29.9201 159.6 30.1801C159.6 30.1801 160.74 30.8501 161.09 31.0801C161.09 31.0801 161.49 31.0101 161.6 31.0501C161.71 31.0801 162.03 31.1101 162.21 31.1001C162.39 31.0801 162.82 30.7601 163.04 31.0001C163.26 31.2401 164.21 31.3201 164.47 31.1901C164.73 31.0601 166.81 30.4201 168.57 31.0801C168.57 31.0801 169.31 31.1001 169.55 30.9801C169.79 30.8701 171.71 30.7601 172.23 31.3301C172.74 31.9101 173.62 31.7801 174.07 31.6801C174.52 31.5801 175.26 30.9601 178.27 31.2201C178.27 31.2201 179.17 31.3801 179.23 31.4901C179.23 31.4901 180.51 30.1301 183.52 30.2401C183.52 30.2401 184.95 29.7301 185.91 30.1401C185.91 30.1401 186.76 29.2801 187.19 29.2601C187.19 29.2601 187.47 29.3101 187.49 29.1301C187.52 28.9401 186.86 29.0001 186.86 28.6801C186.86 28.3601 187.06 28.2801 186.86 27.9601C186.66 27.6401 186.39 27.8901 186.33 27.4301C186.26 26.9601 186.24 26.8401 186.24 26.8401C186.24 26.8401 185.8 26.5301 185.83 26.8701C185.86 27.2001 185.5 26.7101 185.7 26.4701C185.9 26.2301 185.83 26.1801 185.78 25.9801C185.73 25.7801 185.33 25.7001 185.47 25.3801C185.62 25.0601 185.19 24.7001 185.12 25.0301C185.05 25.3601 184.71 25.2301 184.85 24.9201C185 24.6101 184.8 23.8001 185.28 23.9101C185.76 24.0201 185.75 24.1001 185.8 23.8801C185.85 23.6701 185.36 23.3701 185.52 22.9301C185.68 22.4901 185.43 22.4801 185.32 22.6201C185.21 22.7701 185.08 21.7301 185.61 21.7901C186.14 21.8601 186.52 21.9101 186.5 21.6801C186.49 21.4501 186.27 21.4901 186.29 21.2301C186.3 20.9601 186.01 21.1001 186 21.2701C185.99 21.4401 185.89 20.6301 186.13 20.4301C186.37 20.2301 186.77 19.9501 186.9 20.0301C187.03 20.1101 187.41 20.5401 187.45 20.3201C187.49 20.1101 187.46 20.2101 187.45 19.9201C187.44 19.6301 187.46 18.8401 188.16 18.6501C188.85 18.4601 188.71 18.5001 189.01 18.1701C189.32 17.8401 189.08 17.7201 189.54 17.6401C190.01 17.5601 191.82 17.5101 192.29 17.8701C192.29 17.8701 194.21 17.1901 195.17 17.8201C196.01 18.3701 196.26 18.3501 196.31 18.4901C196.31 18.5101 196.32 18.5301 196.32 18.5701C196.32 18.8101 196.13 18.7701 196.33 18.7701C196.53 18.7701 196.69 18.7001 196.73 18.7801C196.77 18.8601 197.51 19.0101 197.13 20.2601C197.13 20.2601 197.34 20.3701 197.5 20.4201C197.66 20.4701 197.45 20.6201 197.74 20.5801C198.03 20.5401 197.85 19.7501 198.55 20.4601C198.55 20.4601 199.11 20.7501 198.34 21.6201C198.34 21.6201 198.34 21.7501 198.74 21.7101C199.14 21.6801 199.11 21.9801 198.95 22.3601C198.79 22.7501 198.66 22.7001 198.72 23.0001C198.78 23.3001 198.31 23.2801 198.84 23.3101C199.37 23.3401 199.32 22.8701 199.47 23.2301C199.62 23.6001 199.71 23.4401 199.67 23.8601C199.63 24.2801 199.13 24.3901 199.14 24.7901C199.15 25.1901 199.6 24.7301 199.34 25.4401C199.08 26.1501 199.43 25.9201 198.96 26.1101C198.49 26.3001 198.59 25.8101 198.47 26.5301C198.35 27.2501 198.43 27.0001 198.22 27.2501C198.01 27.5101 197.97 27.3301 198 27.5801C198.02 27.8401 197.97 28.1601 197.59 28.3301C197.21 28.5101 197.28 28.2301 196.91 28.5601C196.54 28.8901 196.18 29.0201 196.33 29.1701C196.33 29.1701 196.87 29.2101 197.29 29.6501C197.29 29.6501 197.82 30.0101 197.91 30.4801C197.91 30.4801 198.61 29.7601 200.76 30.2801C200.76 30.2801 203.06 29.5401 205.53 31.0101C205.53 31.0101 206.17 31.3901 206.36 31.6301C206.36 31.6401 206.38 31.6501 206.39 31.6601C206.55 31.8901 209 30.7501 211.27 31.8801C211.27 31.8801 211.87 31.9701 212.3 31.8101C212.73 31.6601 213.5 31.1301 214.79 31.3401C214.79 31.3401 215.44 31.3301 215.79 31.3001C216.13 31.2701 217.72 31.1201 218.43 31.2601C218.43 31.2601 218.88 31.4601 219.82 31.6001C220.75 31.7401 220.95 31.3801 221.68 31.5601C221.68 31.5601 222.24 31.5601 222.42 31.4701C222.61 31.3801 223.3 31.2801 223.53 31.4001C223.76 31.5201 224.06 31.2001 224.36 31.0801C224.66 30.9601 225.26 30.2201 225.77 30.2101C226.28 30.2001 226.7 30.0901 227.32 30.2301C227.94 30.3701 228.49 30.1401 228.57 30.0801C228.65 30.0101 229.06 30.1001 229.39 30.2201C229.72 30.3401 229.78 30.4301 230.01 30.4301C230.24 30.4301 230.53 30.5101 230.53 30.5601C230.53 30.6101 230.8 30.8301 230.56 31.1401C230.56 31.1401 230.56 31.3201 230.82 31.3101C231.09 31.3001 231.34 31.3301 231.43 31.4001C231.43 31.4001 231.72 31.8901 231.16 32.0301C231.16 32.0301 230.99 32.0001 230.81 32.0901C230.62 32.1801 230.83 32.2301 230.85 32.3401C230.87 32.4501 231 32.8401 230.25 32.8701C230.25 32.8701 229.78 32.6901 229.71 32.8001C229.71 32.8001 229.37 33.1901 228.83 32.8601C228.83 32.8601 228.53 33.1801 227.92 33.0601C227.92 33.0601 227.79 33.2901 227.92 33.3601C228.05 33.4301 228.43 33.2701 228.59 33.2701C228.75 33.2701 228.99 33.3301 229.25 33.3401C229.52 33.3501 229.56 33.3201 229.85 33.3201C230.14 33.3201 230.24 33.5201 230.23 33.6101C230.23 33.7001 229.92 34.1401 229.34 33.8901C229.34 33.8901 228.23 34.2801 227.81 34.0901C227.81 34.0901 227.64 34.0301 227.55 34.0601C227.46 34.0801 227.07 34.3901 226.55 34.1801C226.55 34.1801 225.36 34.9201 224.11 34.2901C224.11 34.2901 223.86 34.2001 223.8 34.2901C223.73 34.3801 223.71 34.4701 223.63 34.4701C223.55 34.4701 221.28 34.4801 221.1 34.5801C220.92 34.6801 220.24 34.5801 220.07 34.6401C220.07 34.6401 218.07 35.1801 217.72 35.3601C217.36 35.5401 214.87 35.8701 214 35.3301C214 35.3301 212.25 35.3701 211.87 35.0001C211.87 35.0001 211.35 34.7501 211.14 34.8801C210.93 35.0101 209.37 35.2201 209.06 34.9801C209.06 34.9801 207.05 34.8801 206.94 34.9501C206.94 34.9501 205.58 35.6401 204.46 35.3501C204.46 35.3501 203.31 34.9501 203.06 35.0401C202.82 35.1301 201.89 35.4201 201.74 35.6301C201.58 35.8401 201.11 36.0501 200.93 36.5301C200.75 37.0101 200.45 37.3101 200.28 37.5201C200.28 37.5201 200.11 38.0201 200.14 38.7801C200.14 38.7801 199.86 39.8601 199.37 40.7601C199.37 40.7601 199.14 41.4101 199.09 41.7701C199.05 42.1301 198.86 43.4901 198.74 43.8301C198.74 43.8301 198.42 44.6201 198.14 44.8401C198.14 44.8401 198.52 45.1701 198.47 45.8101C198.43 46.4401 198.42 47.0301 198.57 47.1101C198.72 47.1901 199.12 48.0001 198.43 49.1801C198.43 49.1801 198.45 49.2201 198.47 49.6501C198.49 50.0701 198.83 51.7601 198.73 52.6201C198.63 53.4901 198.3 56.2501 198.46 56.8201C198.63 57.3901 199.17 61.3801 198.79 62.9201C198.79 62.9201 198.67 66.1501 198.54 66.6501C198.54 66.6501 197.73 69.8101 197.55 70.2501C197.55 70.2501 196.97 71.4901 196.87 72.1001C196.77 72.7101 196.68 73.2901 196.78 73.9001C196.88 74.5101 196.86 75.0401 196.7 75.3101C196.55 75.5801 196.25 75.8301 196.23 76.1801C196.23 76.5201 196.29 77.0501 195.7 77.8301C195.7 77.8301 195.64 79.2301 195.68 79.7601C195.71 80.2901 195.88 81.4401 195.9 81.8701C195.92 82.3001 196.13 85.6001 195.95 86.2001C195.77 86.8001 195.93 86.1601 195.93 86.1601C195.93 86.1601 195.7 88.9301 195.88 89.7601C196.07 90.5801 196.27 91.3701 196.42 91.8501C196.58 92.3301 196.79 92.7701 197.01 92.9001C197.23 93.0301 198.23 93.4201 199.48 94.4301C199.48 94.4301 200.5 94.8401 201.05 94.9401C201.59 95.0401 201.77 95.0401 202.06 95.0401C202.35 95.0401 202.56 95.1201 202.65 95.1701C202.74 95.2301 203.36 95.4301 203.52 95.1901C203.52 95.1901 203.93 95.2201 203.79 95.7901C203.79 95.7901 203.58 96.3801 203.05 96.3901L202.13 96.3701C202.13 96.3701 202.01 96.0601 201.85 96.1301C201.7 96.2001 202.01 96.3601 201.57 96.3601C201.13 96.3601 201.15 96.2701 201.07 96.1501C200.99 96.0301 201 95.8201 200.9 96.0301C200.8 96.2401 201.07 96.3201 200.76 96.3501C200.45 96.3801 199.86 96.4401 199.65 96.3701C199.44 96.3001 198.6 95.9901 198.37 96.0501C198.15 96.1101 196.75 95.8501 196.57 95.9201C196.39 95.9901 195.98 95.8801 195.76 96.0801C195.54 96.2801 193.8 96.6701 193.52 96.3801C193.23 96.0901 192.84 95.6401 192.88 95.3601C192.91 95.0801 192.84 94.4201 192.98 94.2401C193.12 94.0601 193.35 94.2501 193.31 93.7101C193.28 93.1701 193.41 92.7601 193.28 92.3701C193.15 91.9801 192.21 90.0801 192.07 89.1001C191.92 88.1101 191.36 86.3801 192 85.7701C192 85.7701 190.68 84.1401 190.62 82.2301C190.57 80.3201 190.94 78.3801 191.16 77.9901C191.38 77.6001 191.51 76.9801 191.51 76.6501C191.51 76.3201 191.65 75.2301 191.77 74.8101C191.89 74.3901 191.77 74.2001 191.78 73.9001C191.8 73.6001 191.67 73.5601 191.71 73.1101C191.75 72.6701 191.73 71.8901 191.86 71.3701C191.99 70.8501 191.84 70.5201 191.86 69.9401C191.88 69.3601 192.08 69.2301 191.86 68.4601C191.64 67.6901 191.41 65.6501 191.54 65.1301L191.57 64.8101C191.57 64.8101 191.14 65.4601 191.08 65.8301C191.02 66.2001 190.5 67.5301 190.52 68.6401C190.54 69.7501 190.69 70.3801 190.61 71.1401C190.53 71.8901 190.49 72.1401 190.33 72.6401C190.17 73.1401 190.45 73.5401 189.99 74.0101C189.99 74.0101 189.92 74.8601 189.68 75.1901C189.68 75.1901 189.81 75.9001 189.49 76.1801C189.18 76.4501 189.13 77.1001 189.07 77.4401C189.07 77.4501 189.07 77.4601 189.07 77.4701C189.01 77.7901 188.71 79.3301 189.04 79.8401C189.04 79.8401 189.89 81.2701 189.48 84.4901C189.48 84.4901 189.25 85.4301 189.61 86.3801C189.61 86.3801 189.79 87.6201 189.74 88.3401C189.74 88.3401 189.66 90.1601 190.41 91.2901C191.15 92.4201 191.19 92.7301 190.95 93.0001C190.95 93.0001 191.58 94.0901 191.76 94.5501C191.76 94.5501 192.55 94.8801 192.63 95.1401C192.71 95.3901 193.09 95.9101 192.73 96.5101C192.73 96.5101 192.24 97.0201 191.42 96.4401C191.42 96.4401 191.36 96.2401 191.28 96.3501C191.19 96.4601 191.16 96.7401 190.67 96.7601C190.67 96.7601 190.23 96.7901 190.13 96.2701C190.13 96.2701 189.59 96.6501 189.33 96.2301C189.33 96.2301 188.93 96.5601 188.79 96.1701C188.79 96.1701 188.63 96.6601 188.23 96.2101" fill="#497593"/>
<path d="M231.71 17.6201H153.37V96.4701H231.71V17.6201Z" stroke="#7B99B3" stroke-width="0.5" stroke-miterlimit="10"/>
<path d="M239.79 48.49C239.79 75.13 218.63 96.73 192.52 96.73C166.41 96.73 145.26 75.13 145.26 48.49C145.26 21.85 166.42 0.25 192.53 0.25C218.64 0.25 239.8 21.85 239.8 48.49H239.79Z" stroke="#497593" stroke-width="0.5" stroke-miterlimit="10"/>
<path d="M25.28 169.8H21.76L0 124.64H6.09L23.51 160.84L40.93 124.64H47.15L25.27 169.79L25.28 169.8Z" fill="#497593"/>
<path d="M63.47 169.8V124.4H69.16V169.8H63.47Z" fill="#497593"/>
<path d="M100.64 169.8V129.84H81.66V124.65H125.3V129.84H106.28V169.8H100.64Z" fill="#497593"/>
<path d="M137.52 169.8V124.65H163.41C167.83 124.65 171.29 125.76 173.8 127.98C176.31 130.2 177.56 133.27 177.56 137.2C177.56 140.47 176.58 143.27 174.61 145.61C172.65 147.94 170.06 149.39 166.84 149.97L178.13 169.81H171.91L160.62 150.05H143.11V169.81H137.51L137.52 169.8ZM143.12 144.77H163.04C165.88 144.77 168.02 144.14 169.48 142.89C170.94 141.64 171.67 139.79 171.67 137.37C171.67 134.95 170.94 133.15 169.48 131.83C168.02 130.51 165.97 129.85 163.32 129.85H143.11V144.78L143.12 144.77Z" fill="#497593"/>
<path d="M202.26 124.64V153.88C202.26 158.57 203.14 161.71 204.9 163.31C206.66 164.91 210.11 165.7 215.27 165.7C220.43 165.7 223.87 164.9 225.62 163.31C227.37 161.72 228.24 158.57 228.24 153.88V124.64H233.89V155.4C233.89 160.96 232.44 164.95 229.55 167.36C226.66 169.77 221.9 170.98 215.28 170.98C208.66 170.98 203.89 169.77 201 167.36C198.11 164.95 196.66 160.96 196.66 155.4V124.64H202.26Z" fill="#497593"/>
<path d="M274.32 169.8H270.8L249.04 124.65H255.13L272.55 160.85L289.97 124.65H296.19L274.31 169.8H274.32Z" fill="#497593"/>
<path d="M312.51 169.8V124.4H318.2V169.8H312.51Z" fill="#497593"/>
<path d="M361.58 170.98C354.82 170.98 349.23 168.75 344.83 164.29C340.42 159.83 338.22 154.18 338.22 147.34C338.22 140.5 340.43 134.8 344.84 130.34C349.26 125.88 354.83 123.65 361.57 123.65C368.31 123.65 373.94 125.89 378.38 130.36C382.82 134.83 385.04 140.49 385.04 147.33C385.04 154.17 382.83 159.83 378.4 164.28C373.97 168.74 368.36 170.97 361.57 170.97L361.58 170.98ZM361.58 165.7C366.65 165.7 370.85 163.97 374.18 160.51C377.5 157.05 379.17 152.66 379.17 147.34C379.17 142.02 377.51 137.59 374.2 134.13C370.89 130.67 366.68 128.94 361.58 128.94C356.48 128.94 352.31 130.68 348.98 134.15C345.65 137.63 343.99 142.02 343.99 147.34C343.99 152.66 345.65 157.05 348.98 160.51C352.31 163.97 356.51 165.7 361.58 165.7Z" fill="#497593"/>
<path d="M12.4199 181.65H372.63" stroke="#7B99B3" stroke-width="0.5" stroke-miterlimit="10"/>
<path d="M18.9199 205.8V193.16H19.8399V205.8H18.9199Z" fill="#497593"/>
<path d="M32.0798 205.8L25.4698 194.81V205.8H24.5498V193.16H25.5298L32.1598 204.15V193.16H33.0698V205.8H32.0898H32.0798Z" fill="#497593"/>
<path d="M41.8498 205.96C39.3898 205.96 37.4798 205.11 37.0498 202.63L37.9598 202.48C38.2998 204.49 40.0798 205.07 41.8498 205.07C43.5198 205.07 45.2698 204.2 45.2698 202.3C45.2698 198.3 37.5198 200.67 37.5198 196.18C37.5198 193.95 39.5098 193.03 41.4498 193.03C43.3898 193.03 44.9098 193.72 45.7598 195.55L44.9298 195.95C44.2198 194.43 43.0498 193.96 41.4498 193.96C40.0598 193.96 38.4398 194.5 38.4398 196.19C38.4398 199.69 46.1898 197.44 46.1898 202.31C46.1898 204.72 44.0298 205.97 41.8398 205.97L41.8498 205.96Z" fill="#497593"/>
<path d="M53.5699 194.06V205.8H52.6599V194.06H48.6399V193.15H57.5899V194.06H53.5699Z" fill="#497593"/>
<path d="M61.3099 205.8V193.16H62.2299V205.8H61.3099Z" fill="#497593"/>
<path d="M70.8699 194.06V205.8H69.9599V194.06H65.9399V193.15H74.8899V194.06H70.8699Z" fill="#497593"/>
<path d="M82.81 205.96C79.31 205.96 78.34 203.39 78.34 200.35V193.16H79.26V200.35C79.26 202.85 79.86 205.04 82.81 205.04C85.76 205.04 86.36 202.83 86.36 200.35V193.16H87.28V200.35C87.28 203.52 86.3 205.96 82.81 205.96Z" fill="#497593"/>
<path d="M95.65 194.06V205.8H94.74V194.06H90.72V193.15H99.67V194.06H95.65Z" fill="#497593"/>
<path d="M107.07 205.96C103.28 205.96 102.13 202.68 102.13 199.48C102.13 196.28 103.29 193 107.07 193C110.85 193 112.01 196.28 112.01 199.48C112.01 202.68 110.85 205.96 107.07 205.96ZM107.07 193.92C103.83 193.92 103.05 196.82 103.05 199.48C103.05 202.14 103.83 205.04 107.07 205.04C110.31 205.04 111.11 202.14 111.11 199.48C111.11 196.82 110.33 193.92 107.07 193.92Z" fill="#497593"/>
<path d="M131.41 202.4C130.96 205.37 129.02 205.81 126.39 205.81H122.7V193.17H126.38C129.02 193.17 130.96 193.6 131.42 196.56C131.56 197.54 131.56 198.52 131.56 199.49C131.56 200.46 131.56 201.45 131.42 202.41L131.41 202.4ZM126.37 194.07H123.62V204.88H126.37C130.68 204.88 130.63 203.14 130.63 199.48C130.63 195.82 130.68 194.06 126.37 194.06V194.07Z" fill="#497593"/>
<path d="M135.82 205.8V193.16H143.68V194.07H136.74V198.82H142.81V199.69H136.74V204.91H143.68V205.82H135.82V205.8Z" fill="#497593"/>
<path d="M159.02 205.8H154.46V193.16H158.7C160.91 193.16 162.78 193.99 162.78 196.47C162.78 197.57 162.25 198.81 161.19 199.26C162.55 199.66 163.27 200.98 163.27 202.34C163.27 204.95 161.35 205.8 159.03 205.8H159.02ZM158.69 194.05H155.38V198.94H158.82C160.54 198.94 161.86 198.43 161.86 196.48C161.86 194.53 160.38 194.05 158.69 194.05ZM159.02 199.76H155.38V204.9H159.02C160.79 204.9 162.35 204.43 162.35 202.35C162.35 200.27 160.81 199.76 159.02 199.76Z" fill="#497593"/>
<path d="M167.43 205.8V193.16H168.35V205.8H167.43Z" fill="#497593"/>
<path d="M177.46 205.96C173.67 205.96 172.52 202.68 172.52 199.48C172.52 196.28 173.68 193 177.46 193C181.24 193 182.4 196.28 182.4 199.48C182.4 202.68 181.24 205.96 177.46 205.96ZM177.46 193.92C174.22 193.92 173.44 196.82 173.44 199.48C173.44 202.14 174.22 205.04 177.46 205.04C180.7 205.04 181.5 202.14 181.5 199.48C181.5 196.82 180.72 193.92 177.46 193.92Z" fill="#497593"/>
<path d="M195.76 205.8V195.62L191.99 205.8H191.07L187.32 195.66V205.8H186.4V193.16H187.32L191.54 204.53L195.76 193.16H196.68V205.8H195.76Z" fill="#497593"/>
<path d="M201.21 205.8V193.16H209.07V194.07H202.13V198.82H208.2V199.69H202.13V204.91H209.07V205.82H201.21V205.8Z" fill="#497593"/>
<path d="M217.19 205.96C213.42 205.96 212.25 202.72 212.25 199.48C212.25 196.24 213.43 193 217.19 193C218.91 193 219.94 193.71 220.99 194.99L220.3 195.57C219.41 194.5 218.62 193.92 217.18 193.92C213.96 193.92 213.16 196.78 213.16 199.48C213.16 202.18 213.96 205.04 217.18 205.04C218.61 205.04 219.41 204.46 220.3 203.39L220.99 203.97C219.94 205.26 218.91 205.96 217.19 205.96Z" fill="#497593"/>
<path d="M233.64 205.8L232.16 201.94H226.27L224.79 205.8H223.81L228.65 193.16H229.79L234.63 205.8H233.65H233.64ZM229.2 194.21L226.59 201.07H231.82L229.19 194.21H229.2ZM229.29 191.76H228.26L229.8 189.12H231.01L229.29 191.76Z" fill="#497593"/>
<path d="M245.51 205.8L238.9 194.81V205.8H237.98V193.16H238.96L245.59 204.15V193.16H246.5V205.8H245.52H245.51Z" fill="#497593"/>
<path d="M251.19 205.8V193.16H252.11V205.8H251.19Z" fill="#497593"/>
<path d="M261.23 205.96C257.46 205.96 256.29 202.72 256.29 199.48C256.29 196.24 257.47 193 261.23 193C262.95 193 263.98 193.71 265.03 194.99L264.34 195.57C263.45 194.5 262.66 193.92 261.22 193.92C258 193.92 257.2 196.78 257.2 199.48C257.2 202.18 258 205.04 261.22 205.04C262.65 205.04 263.45 204.46 264.34 203.39L265.03 203.97C263.98 205.26 262.95 205.96 261.23 205.96Z" fill="#497593"/>
<path d="M277.68 205.8L276.2 201.94H270.31L268.83 205.8H267.85L272.69 193.16H273.83L278.67 205.8H277.69H277.68ZM273.24 194.21L270.63 201.07H275.86L273.23 194.21H273.24Z" fill="#497593"/>
<path d="M297.46 205.8C296.95 205.4 296.45 205 295.96 204.59C295 205.57 293.57 205.98 292.19 205.98C290.11 205.98 288.24 204.82 288.24 202.56C288.24 200.62 289.2 199.59 290.79 198.65C290.17 197.74 289.59 196.71 289.59 195.59C289.59 194.12 290.6 193.04 292.09 193.04C293.58 193.04 294.46 194.05 294.46 195.49C294.46 197.16 293.3 198.03 292.01 198.86C293.15 200.42 294.4 201.88 295.81 203.23C296.37 202.29 296.59 201.17 296.59 200.08H297.51C297.51 201.38 297.22 202.74 296.5 203.87C296.95 204.27 297.4 204.67 297.89 205.03L297.44 205.83L297.46 205.8ZM291.28 199.35C289.96 200.18 289.16 200.89 289.16 202.56C289.16 204.23 290.66 205.11 292.18 205.11C293.3 205.11 294.46 204.73 295.26 203.91C293.79 202.53 292.47 200.98 291.28 199.35ZM292.09 193.93C291.09 193.93 290.5 194.6 290.5 195.58C290.5 196.49 291.03 197.45 291.55 198.17C292.55 197.52 293.56 196.79 293.56 195.47C293.56 194.56 293.03 193.93 292.09 193.93Z" fill="#497593"/>
<path d="M313.24 205.96C310.78 205.96 308.87 205.11 308.44 202.63L309.34 202.48C309.68 204.49 311.46 205.07 313.23 205.07C314.9 205.07 316.65 204.2 316.65 202.3C316.65 198.3 308.9 200.67 308.9 196.18C308.9 193.95 310.89 193.03 312.83 193.03C314.77 193.03 316.29 193.72 317.14 195.55L316.31 195.95C315.6 194.43 314.43 193.96 312.83 193.96C311.44 193.96 309.82 194.5 309.82 196.19C309.82 199.69 317.57 197.44 317.57 202.31C317.57 204.72 315.41 205.97 313.22 205.97L313.24 205.96Z" fill="#497593"/>
<path d="M330.05 205.8L328.57 201.94H322.68L321.19 205.8H320.21L325.05 193.16H326.19L331.03 205.8H330.05ZM325.61 194.21L323 201.07H328.23L325.6 194.21H325.61Z" fill="#497593"/>
<path d="M334.38 205.8V193.16H335.3V204.95H341.49V205.8H334.37H334.38Z" fill="#497593"/>
<path d="M349.14 205.96C345.65 205.96 344.67 203.39 344.67 200.35V193.16H345.59V200.35C345.59 202.85 346.19 205.04 349.14 205.04C352.09 205.04 352.69 202.83 352.69 200.35V193.16H353.61V200.35C353.61 203.52 352.63 205.96 349.14 205.96Z" fill="#497593"/>
<path d="M366.77 202.4C366.32 205.37 364.38 205.81 361.75 205.81H358.05V193.17H361.73C364.37 193.17 366.31 193.6 366.77 196.56C366.91 197.54 366.91 198.52 366.91 199.49C366.91 200.46 366.91 201.45 366.77 202.41V202.4ZM361.73 194.07H358.98V204.88H361.73C366.04 204.88 365.99 203.14 365.99 199.48C365.99 195.82 366.04 194.06 361.73 194.06V194.07Z" fill="#497593"/>
</g>
<defs>
<clipPath id="clip0_666_990">
<rect width="385.05" height="205.98" fill="white"/>
</clipPath>
</defs>
</svg>
