<svg width="507" height="98" viewBox="0 0 507 98" fill="none" xmlns="http://www.w3.org/2000/svg">
<path d="M25.22 90.8899C25.22 90.8899 25.48 91.6499 26.4 91.6299C26.4 91.6299 26.63 91.8299 26.82 91.7199C27.02 91.6199 27.53 91.0299 27.51 90.8699C27.49 90.7099 27.36 90.3699 27.34 90.0599C27.32 89.7499 27.37 89.5199 27.48 89.2299C27.58 88.9399 27.65 88.9099 27.83 88.6299C28 88.3499 28.33 88.4699 28.29 87.7999C28.24 87.1299 28.19 87.2099 28.36 86.2899C28.53 85.3699 29.4 84.2999 29.57 84.0499C29.74 83.7999 30.39 83.1499 30.46 82.8299C30.53 82.5099 30.94 81.6899 31.17 81.4299C31.4 81.1599 33.8 78.7399 33.9 76.5699C33.9 76.5699 34.24 76.0199 34.39 75.5899C34.54 75.1599 34.7 74.8399 34.82 74.5499C34.94 74.2599 34.91 74.2999 35.05 74.0699C35.19 73.8399 35.22 73.5999 35.61 73.3399C36 73.0899 37.73 71.6599 37.83 71.0699C37.83 71.0699 38.01 71.0499 38.15 70.6899C38.29 70.3299 38.33 70.3499 38.55 70.1399C38.77 69.9299 40.09 68.7399 40.21 67.7099C40.21 67.7099 40.43 67.0899 40.59 66.8499C40.75 66.6099 40.95 66.4099 40.95 66.4099C40.95 66.4099 40.33 58.3699 40.8 57.6399C40.8 57.6399 40.44 54.8699 40.44 54.6599C40.44 54.4499 39.78 55.5899 39.74 55.8599C39.7 56.1199 37.75 58.6199 37.7 59.0799C37.65 59.5399 36.88 61.4499 36.88 61.7799C36.88 62.1099 36.01 63.3799 35.9 64.2999C35.8 65.2199 35.56 66.5099 35.54 67.0699C35.54 67.0699 34.72 67.9099 34.5 68.3599C34.5 68.3599 33.13 69.7299 33 70.5199C33 70.5199 32.59 70.9299 32.41 71.1599C32.24 71.3899 28.68 75.3699 28.62 75.9199C28.62 75.9199 27.39 78.2699 27.58 79.4099C27.58 79.4099 26.33 81.7699 26.45 82.8999C26.45 82.8999 26.15 84.2599 26.31 84.7099C26.31 84.7099 26.07 85.3399 26.01 85.9499C26.01 85.9499 25.68 86.5599 25.56 86.7799C25.44 86.9999 25.03 87.2699 25.1 87.5999C25.1 87.5999 24.4 87.7699 24.37 88.2599C24.37 88.2599 23.81 88.4999 23.65 88.3099C23.65 88.3099 23.07 88.1899 23.01 88.2999C23.01 88.2999 22.1 88.3699 22.48 89.2799C22.48 89.2799 22.48 89.7899 22.61 89.6799C22.61 89.6799 22.99 90.0099 23.14 89.9399C23.14 89.9399 23.3 90.1199 23.43 90.0799C23.43 90.0799 24.03 90.7899 24.19 90.4899C24.19 90.4899 24.58 91.3999 25.19 90.8799L25.22 90.8899Z" fill="#C4D1DF"/>
<path d="M66.86 92.75C66.86 92.75 68.06 92.53 68.36 92.13C68.66 91.73 68.98 91.41 69.26 91.26C69.54 91.11 69.55 91 70.06 91.03C70.57 91.05 71.32 90.98 71.55 90.66C71.78 90.34 71.67 90.27 71.94 90.27C72.21 90.27 73.06 89.7 73.11 89.42C73.17 89.14 73.46 89.34 73.66 89.23C73.86 89.12 74.35 88.9 74.11 88.38C74.11 88.38 73.89 88.03 73.61 88.14C73.61 88.14 73.4 88.45 73.24 88.4C73.08 88.34 73.13 87.99 72.81 88.04C72.81 88.04 72.52 87.69 72.09 87.84C72.09 87.84 71.24 88.33 71.1 88.34C70.96 88.35 68.72 88.36 68.63 88.14C68.55 87.92 67.64 86.76 67.42 86.36C67.2 85.97 66.42 84.35 66.43 84.07C66.44 83.79 64.64 78.26 63.6 76.95C63.6 76.95 62.18 74.44 61.6 74.13C61.6 74.13 61.38 73.55 61.36 73.33C61.34 73.11 61.28 72.46 61.09 72.24C60.9 72.02 61.05 71.72 60.93 71.6C60.93 71.6 61 70.7 60.81 70.62C60.81 70.62 60.46 69.74 59.9 69.15C59.9 69.15 59.78 68.57 59.62 68.38C59.62 68.38 59.49 67.93 59.49 67.67V67.3C59.49 67.3 59.77 66.26 59.54 65.51C59.54 65.51 58.64 62.98 58.58 62.58C58.58 62.58 58.37 61.07 58.05 60.54C57.74 60.02 57.19 58.99 56.75 58.41C56.75 58.41 56.29 56.89 55.86 56.7C55.86 56.7 55.43 56.2 55.44 55.79C55.44 55.38 55.48 52.51 54.71 51.86C54.71 51.86 54.44 51.03 54.28 51.17C54.28 51.17 54.52 52.95 54.3 53.62C54.3 53.62 54.05 56.52 54.08 57.02C54.08 57.04 54.08 57.06 54.08 57.07C54.13 57.39 54.58 60.05 54.5 60.18C54.5 60.18 54.61 62.91 54.34 63.39C54.34 63.39 54.35 67.83 53.95 68.08C53.95 68.08 54.37 68.64 54.51 68.95C54.65 69.26 55.48 70.88 55.51 71.13C55.55 71.37 56.1 73.13 56.7 73.34C56.7 73.34 56.97 74.17 56.95 74.41C56.92 74.65 57.84 76.4 57.9 76.75C57.9 76.75 57.96 80.8 60.69 82.14C60.69 82.14 60.85 82.09 60.91 82.59C60.91 82.59 61.34 84.77 62.89 85.91C62.89 85.91 63.22 86.27 63.25 86.43C63.29 86.59 63.86 86.77 64.18 87.21C64.51 87.65 65.71 89.25 65.8 90.22C65.8 90.22 65.69 91.85 66.86 92.76V92.75Z" fill="#C4D1DF"/>
<path d="M13.22 21.7001C13.22 21.7001 12.64 21.2801 12.55 21.3601C12.46 21.4501 12.31 21.6201 12.57 21.9301C12.84 22.2401 13.55 22.4201 13.65 22.5801C13.75 22.7501 14.42 23.0501 14.59 23.1201C14.76 23.1801 14.91 23.3601 15.09 23.4301C15.27 23.4901 15.74 24.4601 16.82 24.4501C16.82 24.4501 17.88 24.7701 18.03 25.0001C18.17 25.2301 20.2 25.9001 20.62 26.1301C21.04 26.3601 24.05 28.5801 25.34 28.7501C25.34 28.7501 25.93 28.7001 26.33 29.0001C26.73 29.3001 27.58 29.6401 28.7 29.6201C28.7 29.6201 31.65 31.1601 32.57 30.9201C32.57 30.9201 33.82 31.8601 34.04 31.9701C34.04 31.9701 34.9 32.1801 35.05 32.2501C35.05 32.2501 36.62 30.9401 39.38 31.1101C39.38 31.1101 40.52 30.4801 41.62 30.9301C41.62 30.9301 42.31 30.1601 42.9 30.0501C42.9 30.0501 41.94 29.5301 41.5 29.3401C41.5 29.3401 41 29.0801 40.4 29.0501C40.4 29.0501 39.04 27.9101 36.28 28.9701C36.28 28.9701 33.75 27.0401 30.58 27.1401C30.58 27.1401 29.76 26.8701 29.65 26.5601C29.65 26.5601 28.7 25.2401 26.99 24.8701L26.55 24.7101C26.55 24.7101 25.73 23.5901 22.06 23.5701C22.06 23.5701 20.7 23.0901 20.5 22.8501C20.5 22.8501 20.37 22.7201 20.09 22.7201C19.81 22.7201 19.43 22.4601 19.33 22.3301C19.23 22.2101 18.69 22.2001 18.53 22.1201C18.37 22.0401 18.31 22.0601 18.21 21.9201C18.12 21.7901 17.72 21.3101 17.7 21.0101C17.68 20.7101 17.49 20.4101 17.01 20.1401C16.54 19.8701 16.51 19.9201 16.41 19.7601C16.31 19.5901 15.71 19.0001 15.62 18.8501C15.53 18.7001 14.85 18.7201 14.68 18.7901C14.52 18.8601 14.08 18.8501 13.79 18.7501C13.79 18.7501 13.47 18.7601 13.58 19.0601C13.58 19.0601 13.04 18.9301 12.93 18.7701C12.83 18.6101 12.22 18.4301 12.12 18.4601C12.02 18.4801 11.54 18.8801 12.34 19.2901C12.34 19.2901 12.49 19.2701 12.66 19.3701C12.83 19.4701 13 19.7401 13.23 19.8301C13.46 19.9201 13.46 19.8501 13.61 20.0101C13.76 20.1801 13.79 20.1601 13.75 20.2901C13.71 20.4201 13.71 20.4601 13.69 20.5701C13.67 20.6801 13.57 20.5901 13.34 20.4501C13.1 20.3201 12.95 20.2001 12.83 20.1101C12.71 20.0201 12.36 19.7801 12.27 19.8201C12.18 19.8601 12.01 19.8501 12.01 20.0101C12.01 20.1701 11.98 20.3001 12.16 20.4701C12.34 20.6401 12.29 20.6201 12.52 20.7801C12.75 20.9401 12.67 20.8101 12.95 21.0801C13.23 21.3501 13.41 21.3701 13.42 21.5601C13.44 21.7501 13.51 21.7601 13.51 21.7601L13.2 21.7201L13.22 21.7001Z" fill="#C4D1DF"/>
<path d="M82.2201 22.06L82.2501 22.46C82.2501 22.46 82.5701 22.37 82.6801 22.29C82.7801 22.21 82.8901 22.02 83.1201 22C83.3601 21.99 83.5201 21.85 83.6701 21.78C83.8101 21.72 84.0801 21.34 84.2001 21.42C84.3201 21.5 84.5401 21.65 84.4001 21.89C84.2601 22.12 84.1701 22.4 83.8201 22.52C83.4701 22.65 83.3801 22.58 83.1501 22.81C82.9201 23.03 82.9201 23.08 82.6601 23.22C82.4001 23.36 82.1001 23.27 82.0001 23.43C81.9001 23.59 81.5701 23.66 81.4601 23.75C81.3401 23.84 80.8301 24.77 79.4901 24.59C79.4901 24.59 79.0401 24.71 78.9101 24.94C78.7801 25.17 77.9401 25.32 77.6701 25.44C77.6701 25.44 76.0001 26.2 75.6601 26.5C75.3201 26.8 72.0601 29.01 71.1301 28.99C71.1301 28.99 70.5301 29 70.4101 29.24C70.4101 29.24 69.6201 29.78 68.9601 29.74C68.9601 29.74 67.8301 29.66 67.6301 29.84C67.4301 30.02 64.2001 31.27 63.9301 31.58C63.6601 31.89 62.9701 32.25 62.5301 32.34C62.0901 32.43 62.1401 32.4 62.1401 32.4C62.1401 32.4 59.9101 30.34 56.5701 31.14C56.5701 31.14 54.6901 30.46 53.6901 31.25C53.6901 31.25 53.3401 30.5 53.0701 30.42C53.0701 30.42 53.9901 29.4 55.3201 29.57C55.3201 29.57 56.6301 27.69 60.4101 28.95C60.4101 28.95 63.4301 27.1 65.6601 27.17C65.6601 27.17 65.8001 26.99 66.4001 27.02C66.4001 27.02 67.1901 25.5 69.3101 25.06C69.3101 25.06 70.7601 23.62 72.8101 23.78C72.8101 23.78 74.4201 23.58 75.3001 23.08C76.1801 22.58 77.3601 22.09 78.0901 21.99C78.0901 21.99 78.9201 20.16 80.2401 20.26C80.2401 20.26 81.2101 19.47 81.4401 19.28C81.6701 19.08 81.6401 19.03 82.1301 19.12C82.6201 19.21 82.6201 19.03 82.8201 18.97C83.0201 18.91 83.4901 18.7 83.5601 18.79C83.6301 18.88 83.8501 18.88 83.7301 19.14C83.7301 19.14 83.9101 18.92 84.1401 18.95C84.1401 18.95 84.6201 18.38 84.8501 18.65C85.0801 18.92 84.8501 19.18 84.4101 19.34C84.4101 19.34 84.2301 19.5 83.9801 19.63C83.7301 19.76 83.0201 20.06 83.0101 20.2C83.0001 20.34 82.9501 20.5 82.8801 20.63C82.8101 20.76 83.1001 20.55 83.2001 20.53C83.3101 20.5 83.7801 20.32 83.9401 20.26C84.1001 20.2 84.5901 19.94 84.9501 20.01C84.9501 20.01 85.3901 20.54 84.4101 20.9C84.4101 20.9 84.0101 20.89 83.9801 20.96C83.9501 21.04 83.6601 21.4 83.1101 21.47C83.1101 21.47 82.6001 22.03 82.2801 22.07L82.2201 22.06Z" fill="#C4D1DF"/>
<path d="M44.02 96.9801C44.02 96.9801 43.35 97.0301 43.27 95.9701C43.27 95.9701 42.73 95.5201 43.05 94.9901C43.05 94.9901 43.31 94.4901 43.42 94.4901C43.42 94.4901 43.23 93.0701 43.63 92.8701C43.63 92.8701 43.39 92.4701 43.42 92.2301C43.42 92.2301 42.17 89.9701 41.99 89.7301C41.99 89.7301 41.09 86.9901 41.13 86.5201C41.13 86.5201 39.34 83.2801 40.22 80.7701C40.22 80.7701 40.35 79.9201 40.41 79.7301C40.47 79.5401 40.7 78.3801 40.81 78.3001C40.92 78.2201 40.91 77.4501 40.94 77.3201C40.97 77.1901 41.05 75.9101 41.08 75.8001C41.11 75.6901 41.27 73.9101 41.35 73.8001C41.43 73.6901 41.69 72.2301 41.67 71.8801C41.65 71.5301 41.64 71.4001 41.64 71.4001C41.64 71.4001 41.02 70.3101 40.76 66.5901C40.76 66.5901 40.14 58.2301 40.57 57.6801C40.57 57.6801 40.39 55.1801 40.38 54.7701C40.36 54.3501 40.35 54.2701 40.52 53.9201C40.7 53.5701 40.68 53.2801 40.78 53.0101C40.78 53.0101 40.94 52.3701 40.99 51.8901C41.04 51.4101 41.18 50.1101 41.82 50.0301C41.82 50.0301 41.28 49.4101 41.55 48.7201C41.55 48.7201 41.76 47.7301 41.85 47.7301C41.85 47.7301 41.71 46.6901 42.43 45.7301C42.43 45.7301 41.42 44.4601 40.99 41.4501C40.99 41.4501 40.41 40.4401 40.64 39.4301C40.64 39.4301 40.1 39.0301 39.74 37.6401C39.74 37.6401 39.2 35.9401 37.99 36.0101C37.99 36.0101 34.69 36.4401 33.07 35.3401C33.07 35.3401 32.06 35.2301 31.72 35.2901C31.38 35.3501 30.76 35.2901 30.65 35.3201C30.54 35.3501 30.27 35.5401 29.9 35.2701C29.9 35.2701 28.62 35.1901 28.32 35.4001C28.02 35.6101 27.68 35.6701 27.26 35.6701C27.26 35.6701 25.77 35.5301 25.64 35.6201C25.64 35.6201 22.47 36.0001 20.27 34.8001C20.27 34.8001 19.42 34.9301 19.13 34.7801C18.84 34.6301 17.11 34.8901 17.08 34.4001C17.08 34.4001 16.26 34.6701 16.17 34.7801C16.17 34.7801 14.63 34.9401 14.34 34.4101C14.34 34.4101 13.59 34.6501 13.3 34.1901C13.3 34.1901 12.42 34.4801 12.26 34.1901C12.26 34.1901 11.83 34.3301 11.68 34.1601C11.68 34.1601 11.15 34.5001 10.61 34.0801C10.61 34.0801 10.53 33.8101 11.27 33.6301L11.54 33.6001C11.54 33.6001 11.06 33.5401 10.79 33.3801C10.79 33.3801 9.99 33.4801 9.96 33.4001C9.96 33.4001 9.35 33.3401 9.43 32.9401C9.43 32.9401 9.36999 32.6801 9.80999 32.7101C9.80999 32.7101 10.56 32.7601 10.66 32.7101C10.76 32.6601 11.16 32.5801 11.27 32.5801C11.38 32.5801 10.66 32.2401 10.57 32.1301C10.57 32.1301 9.75 32.6301 9.29 32.0001C9.29 32.0001 9 31.7001 9.15 31.5701C9.29 31.4401 10.09 31.5501 10.32 31.5101C10.54 31.4601 10.88 31.2901 11.07 31.3801C11.26 31.4801 11.82 31.4301 11.9 31.4001C11.98 31.3701 12 31.1401 12.46 31.2101C12.92 31.2701 13.1 31.1601 13.1 31.1601L12.67 30.8901C12.67 30.8901 12.03 31.0501 11.82 30.7601C11.82 30.7601 11.03 30.9701 10.65 30.3601C10.65 30.3601 10.52 30.0201 11.26 30.1201C11.26 30.1201 12.19 30.1801 12.32 30.1001C12.32 30.1001 12.83 29.9101 13.23 30.0501C13.23 30.0501 13.9 30.6401 14.06 30.6401C14.06 30.6401 15.13 30.6701 15.33 30.9301C15.33 30.9301 16.47 31.6001 16.82 31.8301C16.82 31.8301 17.22 31.7601 17.33 31.8001C17.44 31.8301 17.76 31.8601 17.94 31.8501C18.12 31.8301 18.55 31.5101 18.77 31.7501C18.99 31.9901 19.94 32.0701 20.19 31.9401C20.45 31.8101 22.53 31.1701 24.29 31.8301C24.29 31.8301 25.03 31.8501 25.27 31.7301C25.51 31.6201 27.43 31.5101 27.95 32.0801C28.46 32.6601 29.34 32.5301 29.79 32.4301C30.24 32.3301 30.98 31.7101 33.99 31.9701C33.99 31.9701 34.89 32.1301 34.95 32.2401C34.95 32.2401 36.23 30.8801 39.24 30.9901C39.24 30.9901 40.67 30.4801 41.63 30.8901C41.63 30.8901 42.48 30.0201 42.91 30.0101C42.91 30.0101 43.19 30.0601 43.21 29.8801C43.24 29.6901 42.58 29.7501 42.58 29.4301C42.58 29.1101 42.78 29.0301 42.58 28.7101C42.38 28.3901 42.11 28.6401 42.05 28.1801C41.98 27.7101 41.96 27.5901 41.96 27.5901C41.96 27.5901 41.52 27.2801 41.55 27.6201C41.58 27.9501 41.22 27.4601 41.42 27.2201C41.62 26.9801 41.55 26.9301 41.5 26.7301C41.45 26.5301 41.05 26.4501 41.19 26.1301C41.34 25.8101 40.91 25.4501 40.84 25.7801C40.77 26.1101 40.43 25.9801 40.57 25.6701C40.72 25.3601 40.52 24.5501 41 24.6601C41.48 24.7701 41.47 24.8501 41.52 24.6301C41.57 24.4201 41.08 24.1201 41.24 23.6801C41.4 23.2401 41.15 23.2201 41.04 23.3701C40.93 23.5201 40.8 22.4801 41.33 22.5401C41.86 22.6001 42.24 22.6601 42.22 22.4301C42.21 22.2001 41.99 22.2401 42.01 21.9801C42.02 21.7101 41.73 21.8501 41.72 22.0201C41.71 22.1901 41.61 21.3801 41.85 21.1801C42.09 20.9801 42.49 20.7001 42.62 20.7801C42.75 20.8601 43.13 21.2901 43.17 21.0701C43.21 20.8601 43.18 20.9601 43.17 20.6701C43.16 20.3801 43.18 19.5901 43.88 19.4001C44.57 19.2101 44.43 19.2501 44.73 18.9201C45.04 18.5901 44.8 18.4701 45.26 18.3901C45.73 18.3101 47.54 18.2601 48.01 18.6201C48.01 18.6201 49.93 17.9401 50.89 18.5701C51.73 19.1201 51.98 19.1001 52.03 19.2401C52.03 19.2601 52.04 19.2801 52.04 19.3201C52.04 19.5601 51.85 19.5201 52.05 19.5201C52.25 19.5201 52.41 19.4501 52.45 19.5301C52.49 19.6101 53.23 19.7601 52.85 21.0101C52.85 21.0101 53.06 21.1201 53.23 21.1701C53.39 21.2201 53.18 21.3701 53.47 21.3301C53.76 21.2901 53.58 20.5001 54.28 21.2101C54.28 21.2101 54.84 21.5001 54.07 22.3701C54.07 22.3701 54.07 22.5001 54.47 22.4601C54.87 22.4301 54.84 22.7301 54.68 23.1101C54.52 23.5001 54.39 23.4501 54.45 23.7501C54.51 24.0501 54.04 24.0301 54.57 24.0601C55.1 24.0901 55.05 23.6201 55.2 23.9801C55.35 24.3501 55.44 24.1901 55.4 24.6101C55.36 25.0301 54.86 25.1401 54.87 25.5401C54.88 25.9401 55.33 25.4801 55.07 26.1901C54.81 26.9001 55.16 26.6701 54.69 26.8501C54.22 27.0401 54.32 26.5501 54.2 27.2701C54.08 27.9901 54.16 27.7301 53.95 27.9901C53.74 28.2501 53.7 28.0701 53.73 28.3201C53.75 28.5701 53.7 28.9001 53.32 29.0701C52.94 29.2501 53.01 28.9701 52.64 29.3001C52.27 29.6301 51.91 29.7601 52.06 29.9101C52.06 29.9101 52.6 29.9601 53.01 30.3901C53.01 30.3901 53.54 30.7501 53.63 31.2201C53.63 31.2201 54.33 30.5001 56.48 31.0201C56.48 31.0201 58.78 30.2801 61.25 31.7501C61.25 31.7501 61.89 32.1301 62.08 32.3701C62.08 32.3801 62.1 32.3901 62.11 32.4001C62.27 32.6301 64.72 31.4901 66.99 32.6201C66.99 32.6201 67.59 32.7101 68.02 32.5501C68.45 32.3901 69.22 31.8701 70.51 32.0801C70.51 32.0801 71.16 32.0701 71.51 32.0301C71.85 32.0001 73.44 31.8501 74.15 31.9901C74.15 31.9901 74.61 32.1901 75.54 32.3301C76.47 32.4701 76.67 32.1101 77.4 32.2901C77.4 32.2901 77.96 32.2901 78.14 32.2001C78.33 32.1101 79.02 32.0101 79.25 32.1301C79.48 32.2501 79.78 31.9301 80.08 31.8101C80.38 31.6901 80.98 30.9501 81.49 30.9401C82 30.9301 82.42 30.8201 83.04 30.9601C83.66 31.1001 84.21 30.8701 84.29 30.8101C84.37 30.7401 84.78 30.8301 85.11 30.9501C85.44 31.0701 85.5 31.1601 85.73 31.1601C85.96 31.1601 86.25 31.2401 86.25 31.2901C86.25 31.3401 86.52 31.5601 86.28 31.8701C86.28 31.8701 86.28 32.0501 86.54 32.0401C86.81 32.0301 87.06 32.0601 87.15 32.1301C87.15 32.1301 87.44 32.6201 86.88 32.7601C86.88 32.7601 86.71 32.7301 86.53 32.8201C86.34 32.9101 86.55 32.9601 86.57 33.0701C86.59 33.1801 86.72 33.5701 85.97 33.6001C85.97 33.6001 85.5 33.4201 85.43 33.5301C85.43 33.5301 85.09 33.9201 84.55 33.5901C84.55 33.5901 84.25 33.9101 83.64 33.7901C83.64 33.7901 83.51 34.0201 83.64 34.0901C83.77 34.1601 84.15 34.0001 84.31 34.0001C84.47 34.0001 84.71 34.0601 84.97 34.0701C85.24 34.0701 85.28 34.0501 85.57 34.0501C85.86 34.0501 85.96 34.2501 85.95 34.3401C85.95 34.4301 85.64 34.8701 85.06 34.6201C85.06 34.6201 83.95 35.0101 83.53 34.8201C83.53 34.8201 83.36 34.7601 83.27 34.7901C83.18 34.8101 82.79 35.1201 82.27 34.9101C82.27 34.9101 81.08 35.6501 79.83 35.0201C79.83 35.0201 79.58 34.9301 79.52 35.0201C79.45 35.1101 79.43 35.2001 79.35 35.2001C79.27 35.2001 77 35.2101 76.82 35.3101C76.64 35.4101 75.96 35.3101 75.79 35.3701C75.79 35.3701 73.79 35.9101 73.44 36.0901C73.08 36.2701 70.59 36.6001 69.72 36.0601C69.72 36.0601 67.97 36.1001 67.59 35.7301C67.59 35.7301 67.07 35.4701 66.86 35.6101C66.65 35.7401 65.09 35.9501 64.78 35.7101C64.78 35.7101 62.77 35.6101 62.66 35.6801C62.66 35.6801 61.3 36.3701 60.18 36.0801C60.18 36.0801 59.03 35.6801 58.78 35.7701C58.54 35.8601 57.61 36.1501 57.46 36.3601C57.3 36.5701 56.83 36.7801 56.65 37.2601C56.47 37.7401 56.17 38.0401 56 38.2501C56 38.2501 55.83 38.7501 55.86 39.5201C55.86 39.5201 55.58 40.6001 55.09 41.5001C55.09 41.5001 54.86 42.1601 54.81 42.5101C54.77 42.8701 54.58 44.2301 54.46 44.5701C54.46 44.5701 54.14 45.3601 53.86 45.5801C53.86 45.5801 54.24 45.9101 54.19 46.5501C54.15 47.1801 54.14 47.7701 54.29 47.8501C54.44 47.9301 54.84 48.7401 54.15 49.9201C54.15 49.9201 54.17 49.9601 54.19 50.3901C54.21 50.8101 54.55 52.5001 54.45 53.3601C54.35 54.2301 54.02 56.9901 54.18 57.5601C54.35 58.1301 54.89 62.1201 54.51 63.6601C54.51 63.6601 54.39 66.8901 54.26 67.3901C54.26 67.3901 53.45 70.5501 53.27 70.9901C53.27 70.9901 52.69 72.2301 52.59 72.8401C52.49 73.4501 52.4 74.0301 52.5 74.6401C52.6 75.2501 52.58 75.7801 52.42 76.0501C52.27 76.3201 51.97 76.5701 51.95 76.9201C51.95 77.2601 52.01 77.7901 51.42 78.5701C51.42 78.5701 51.36 79.9701 51.4 80.5001C51.43 81.0301 51.6 82.1701 51.62 82.6101C51.64 83.0401 51.85 86.3401 51.67 86.9401C51.49 87.5401 51.65 86.9001 51.65 86.9001C51.65 86.9001 51.42 89.6701 51.6 90.5001C51.79 91.3201 51.99 92.1101 52.14 92.5801C52.3 93.0601 52.51 93.5001 52.73 93.6301C52.95 93.7601 53.95 94.1501 55.2 95.1601C55.2 95.1601 56.22 95.5701 56.77 95.6701C57.31 95.7701 57.49 95.7701 57.78 95.7701C58.07 95.7701 58.28 95.8501 58.37 95.9001C58.46 95.9601 59.08 96.1601 59.24 95.9201C59.24 95.9201 59.65 95.9501 59.51 96.5201C59.51 96.5201 59.3 97.1101 58.77 97.1201L57.85 97.1001C57.85 97.1001 57.73 96.7901 57.57 96.8601C57.42 96.9301 57.73 97.0901 57.29 97.0901C56.85 97.0901 56.87 97.0001 56.79 96.8801C56.71 96.7601 56.72 96.5501 56.62 96.7601C56.52 96.9701 56.79 97.0501 56.48 97.0801C56.17 97.1101 55.58 97.1701 55.37 97.1001C55.16 97.0301 54.32 96.7201 54.09 96.7801C53.87 96.8401 52.47 96.5801 52.29 96.6501C52.11 96.7201 51.7 96.6101 51.48 96.8101C51.26 97.0101 49.52 97.4001 49.24 97.1101C48.95 96.8201 48.56 96.3701 48.6 96.0901C48.63 95.8101 48.56 95.1501 48.7 94.9701C48.84 94.7901 49.07 94.9801 49.03 94.4401C49 93.9001 49.13 93.4801 49 93.1001C48.87 92.7101 47.93 90.8101 47.79 89.8301C47.64 88.8401 47.08 87.1101 47.72 86.5001C47.72 86.5001 46.4 84.8701 46.34 82.9601C46.29 81.0501 46.66 79.1101 46.88 78.7201C47.1 78.3301 47.23 77.7101 47.23 77.3801C47.23 77.0501 47.37 75.9601 47.49 75.5401C47.61 75.1201 47.49 74.9301 47.5 74.6301C47.52 74.3301 47.39 74.2901 47.43 73.8401C47.47 73.4001 47.45 72.6201 47.58 72.1001C47.71 71.5801 47.56 71.2501 47.58 70.6701C47.6 70.0901 47.8 69.9601 47.58 69.1901C47.36 68.4201 47.12 66.3801 47.26 65.8601L47.29 65.5401C47.29 65.5401 46.86 66.1901 46.8 66.5601C46.74 66.9301 46.22 68.2601 46.24 69.3701C46.26 70.4801 46.41 71.1101 46.33 71.8701C46.25 72.6301 46.21 72.8701 46.05 73.3701C45.89 73.8701 46.17 74.2701 45.71 74.7401C45.71 74.7401 45.64 75.5901 45.4 75.9201C45.4 75.9201 45.53 76.6301 45.21 76.9101C44.9 77.1801 44.85 77.8301 44.79 78.1701C44.79 78.1801 44.79 78.1901 44.79 78.2001C44.73 78.5201 44.43 80.0601 44.76 80.5701C44.76 80.5701 45.61 82.0001 45.2 85.2201C45.2 85.2201 44.97 86.1601 45.33 87.1101C45.33 87.1101 45.51 88.3501 45.46 89.0701C45.46 89.0701 45.38 90.8901 46.13 92.0201C46.87 93.1501 46.91 93.4601 46.67 93.7301C46.67 93.7301 47.3 94.8201 47.48 95.2801C47.48 95.2801 48.27 95.6101 48.35 95.8701C48.43 96.1301 48.81 96.6401 48.45 97.2401C48.45 97.2401 47.96 97.7501 47.14 97.1701C47.14 97.1701 47.08 96.9701 47 97.0801C46.91 97.1901 46.88 97.4701 46.39 97.4901C46.39 97.4901 45.95 97.5201 45.85 97.0001C45.85 97.0001 45.31 97.3801 45.05 96.9601C45.05 96.9601 44.65 97.2901 44.51 96.9101C44.51 96.9101 44.35 97.4001 43.95 96.9501" fill="white"/>
<path d="M87.4401 18.3701H9.1001V97.2201H87.4401V18.3701Z" stroke="#C4D1DF" stroke-width="0.5" stroke-miterlimit="10"/>
<path d="M95.53 49.24C95.53 75.88 74.37 97.48 48.26 97.48C22.15 97.48 1 75.88 1 49.24C1 22.6 22.16 1 48.26 1C74.36 1 95.53 22.6 95.53 49.24Z" stroke="white" stroke-width="0.5" stroke-miterlimit="10"/>
<path d="M146.33 61.0699H142.81L121.05 15.9199H127.14L144.56 52.1199L161.98 15.9199H168.2L146.32 61.0699H146.33Z" fill="white"/>
<path d="M184.52 61.0699V15.6699H190.21V61.0699H184.52Z" fill="white"/>
<path d="M221.69 61.0699V21.1099H202.71V15.9199H246.35V21.1099H227.33V61.0699H221.69Z" fill="white"/>
<path d="M258.57 61.0699V15.9199H284.46C288.88 15.9199 292.34 17.0299 294.85 19.2499C297.36 21.4699 298.61 24.5399 298.61 28.4699C298.61 31.7399 297.63 34.5399 295.66 36.8799C293.7 39.2099 291.11 40.6599 287.89 41.2399L299.18 61.0799H292.96L281.67 41.3199H264.17V61.0799H258.57V61.0699ZM264.17 36.0399H284.09C286.93 36.0399 289.07 35.4099 290.53 34.1599C291.99 32.9099 292.72 31.0699 292.72 28.6399C292.72 26.2099 291.99 24.4199 290.53 23.0999C289.07 21.7799 287.02 21.1199 284.37 21.1199H264.16V36.0499L264.17 36.0399Z" fill="white"/>
<path d="M323.31 15.9099V45.1499C323.31 49.8399 324.19 52.9799 325.95 54.5799C327.71 56.1799 331.16 56.9699 336.32 56.9699C341.48 56.9699 344.92 56.1699 346.67 54.5799C348.42 52.9899 349.29 49.8399 349.29 45.1499V15.9099H354.94V46.6699C354.94 52.2299 353.49 56.2199 350.6 58.6299C347.71 61.0399 342.95 62.2499 336.33 62.2499C329.71 62.2499 324.94 61.0399 322.05 58.6299C319.16 56.2199 317.71 52.2299 317.71 46.6699V15.9099H323.31Z" fill="white"/>
<path d="M395.37 61.0699H391.85L370.09 15.9199H376.18L393.6 52.1199L411.02 15.9199H417.24L395.36 61.0699H395.37Z" fill="white"/>
<path d="M433.56 61.0699V15.6699H439.25V61.0699H433.56Z" fill="white"/>
<path d="M482.63 62.2499C475.87 62.2499 470.28 60.0199 465.88 55.5599C461.47 51.0999 459.27 45.4499 459.27 38.6099C459.27 31.7699 461.48 26.0699 465.89 21.6099C470.31 17.1499 475.88 14.9199 482.62 14.9199C489.36 14.9199 494.99 17.1599 499.43 21.6299C503.87 26.0999 506.09 31.7599 506.09 38.5999C506.09 45.4399 503.88 51.0999 499.45 55.5499C495.02 60.0099 489.41 62.2399 482.62 62.2399L482.63 62.2499ZM482.63 56.9699C487.7 56.9699 491.9 55.2399 495.23 51.7799C498.55 48.3199 500.22 43.9299 500.22 38.6099C500.22 33.2899 498.56 28.8599 495.25 25.3999C491.94 21.9399 487.73 20.2099 482.63 20.2099C477.53 20.2099 473.36 21.9499 470.03 25.4199C466.7 28.8999 465.04 33.2899 465.04 38.6099C465.04 43.9299 466.7 48.3199 470.03 51.7799C473.36 55.2399 477.56 56.9699 482.63 56.9699Z" fill="white"/>
<path d="M133.47 72.9199H493.69" stroke="#C4D1DF" stroke-width="0.5" stroke-miterlimit="10"/>
<path d="M139.97 97.0699V84.4299H140.89V97.0699H139.97Z" fill="white"/>
<path d="M153.14 97.0699L146.53 86.0799V97.0699H145.61V84.4299H146.59L153.22 95.4199V84.4299H154.13V97.0699H153.15H153.14Z" fill="white"/>
<path d="M162.9 97.2398C160.44 97.2398 158.53 96.3898 158.1 93.9098L159.01 93.7598C159.35 95.7698 161.13 96.3498 162.9 96.3498C164.57 96.3498 166.32 95.4798 166.32 93.5798C166.32 89.5798 158.57 91.9498 158.57 87.4598C158.57 85.2298 160.56 84.3098 162.5 84.3098C164.44 84.3098 165.96 84.9998 166.81 86.8298L165.98 87.2298C165.27 85.7098 164.1 85.2398 162.5 85.2398C161.11 85.2398 159.49 85.7798 159.49 87.4698C159.49 90.9698 167.24 88.7198 167.24 93.5898C167.24 95.9998 165.08 97.2498 162.89 97.2498L162.9 97.2398Z" fill="white"/>
<path d="M174.62 85.3399V97.0799H173.71V85.3399H169.69V84.4299H178.64V85.3399H174.62Z" fill="white"/>
<path d="M182.36 97.0699V84.4299H183.28V97.0699H182.36Z" fill="white"/>
<path d="M191.92 85.3399V97.0799H191.02V85.3399H187V84.4299H195.95V85.3399H191.93H191.92Z" fill="white"/>
<path d="M203.86 97.2399C200.36 97.2399 199.39 94.6699 199.39 91.6199V84.4299H200.31V91.6199C200.31 94.1199 200.91 96.3099 203.86 96.3099C206.81 96.3099 207.41 94.0999 207.41 91.6199V84.4299H208.33V91.6199C208.33 94.7899 207.35 97.2399 203.86 97.2399Z" fill="white"/>
<path d="M216.71 85.3399V97.0799H215.8V85.3399H211.78V84.4299H220.73V85.3399H216.71Z" fill="white"/>
<path d="M228.12 97.2398C224.33 97.2398 223.18 93.9598 223.18 90.7598C223.18 87.5598 224.34 84.2798 228.12 84.2798C231.9 84.2798 233.07 87.5598 233.07 90.7598C233.07 93.9598 231.91 97.2398 228.12 97.2398ZM228.12 85.1998C224.88 85.1998 224.1 88.0998 224.1 90.7598C224.1 93.4198 224.88 96.3198 228.12 96.3198C231.36 96.3198 232.16 93.4198 232.16 90.7598C232.16 88.0998 231.38 85.1998 228.12 85.1998Z" fill="white"/>
<path d="M252.46 93.6699C252.01 96.6399 250.07 97.0699 247.44 97.0699H243.74V84.4299H247.42C250.06 84.4299 252 84.8599 252.46 87.8199C252.61 88.7999 252.61 89.7799 252.61 90.7499C252.61 91.7199 252.61 92.7099 252.46 93.6699ZM247.42 85.3399H244.67V96.1499H247.42C251.73 96.1499 251.68 94.4099 251.68 90.7499C251.68 87.0899 251.73 85.3299 247.42 85.3299V85.3399Z" fill="white"/>
<path d="M256.87 97.0699V84.4299H264.73V85.3399H257.79V90.0899H263.86V90.9599H257.79V96.1799H264.73V97.0899H256.87V97.0699Z" fill="white"/>
<path d="M280.07 97.0699H275.51V84.4299H279.75C281.96 84.4299 283.83 85.2599 283.83 87.7399C283.83 88.8399 283.3 90.0799 282.24 90.5299C283.6 90.9299 284.32 92.2499 284.32 93.6099C284.32 96.2199 282.4 97.0699 280.08 97.0699H280.07ZM279.74 85.3199H276.43V90.2099H279.87C281.59 90.2099 282.91 89.6999 282.91 87.7499C282.91 85.7999 281.42 85.3199 279.74 85.3199ZM280.07 91.0299H276.43V96.1699H280.07C281.84 96.1699 283.4 95.6999 283.4 93.6199C283.4 91.5399 281.86 91.0299 280.07 91.0299Z" fill="white"/>
<path d="M288.48 97.0699V84.4299H289.4V97.0699H288.48Z" fill="white"/>
<path d="M298.51 97.2398C294.72 97.2398 293.56 93.9598 293.56 90.7598C293.56 87.5598 294.72 84.2798 298.51 84.2798C302.3 84.2798 303.45 87.5598 303.45 90.7598C303.45 93.9598 302.29 97.2398 298.51 97.2398ZM298.51 85.1998C295.27 85.1998 294.49 88.0998 294.49 90.7598C294.49 93.4198 295.27 96.3198 298.51 96.3198C301.75 96.3198 302.55 93.4198 302.55 90.7598C302.55 88.0998 301.77 85.1998 298.51 85.1998Z" fill="white"/>
<path d="M316.81 97.0699V86.8899L313.04 97.0699H312.12L308.37 86.9299V97.0699H307.45V84.4299H308.37L312.59 95.7999L316.81 84.4299H317.73V97.0699H316.81Z" fill="white"/>
<path d="M322.26 97.0699V84.4299H330.12V85.3399H323.18V90.0899H329.25V90.9599H323.18V96.1799H330.12V97.0899H322.26V97.0699Z" fill="white"/>
<path d="M338.24 97.2398C334.47 97.2398 333.3 93.9998 333.3 90.7598C333.3 87.5198 334.48 84.2798 338.24 84.2798C339.96 84.2798 340.99 84.9898 342.04 86.2698L341.35 86.8498C340.46 85.7798 339.67 85.1998 338.23 85.1998C335.01 85.1998 334.21 88.0598 334.21 90.7598C334.21 93.4598 335.01 96.3198 338.23 96.3198C339.66 96.3198 340.46 95.7398 341.35 94.6698L342.04 95.2498C340.99 96.5398 339.96 97.2398 338.24 97.2398Z" fill="white"/>
<path d="M354.69 97.0699L353.21 93.2099H347.32L345.84 97.0699H344.86L349.7 84.4299H350.84L355.68 97.0699H354.7H354.69ZM350.25 85.4799L347.64 92.3499H352.87L350.24 85.4799H350.25ZM350.34 83.0299H349.31L350.85 80.3899H352.06L350.34 83.0299Z" fill="white"/>
<path d="M366.56 97.0699L359.95 86.0799V97.0699H359.03V84.4299H360.01L366.64 95.4199V84.4299H367.55V97.0699H366.57H366.56Z" fill="white"/>
<path d="M372.25 97.0699V84.4299H373.17V97.0699H372.25Z" fill="white"/>
<path d="M382.28 97.2398C378.51 97.2398 377.34 93.9998 377.34 90.7598C377.34 87.5198 378.52 84.2798 382.28 84.2798C384 84.2798 385.03 84.9898 386.08 86.2698L385.39 86.8498C384.5 85.7798 383.71 85.1998 382.27 85.1998C379.05 85.1998 378.25 88.0598 378.25 90.7598C378.25 93.4598 379.05 96.3198 382.27 96.3198C383.7 96.3198 384.5 95.7398 385.39 94.6698L386.08 95.2498C385.03 96.5398 384 97.2398 382.28 97.2398Z" fill="white"/>
<path d="M398.73 97.0699L397.25 93.2099H391.36L389.88 97.0699H388.9L393.74 84.4299H394.88L399.72 97.0699H398.74H398.73ZM394.29 85.4799L391.68 92.3499H396.91L394.28 85.4799H394.29Z" fill="white"/>
<path d="M418.51 97.0698C418 96.6698 417.5 96.2698 417.01 95.8598C416.05 96.8398 414.62 97.2498 413.24 97.2498C411.16 97.2498 409.29 96.0898 409.29 93.8298C409.29 91.8898 410.25 90.8598 411.84 89.9198C411.22 89.0098 410.64 87.9798 410.64 86.8598C410.64 85.3898 411.65 84.3098 413.14 84.3098C414.63 84.3098 415.51 85.3198 415.51 86.7598C415.51 88.4298 414.35 89.2998 413.06 90.1298C414.2 91.6898 415.45 93.1598 416.86 94.4998C417.42 93.5598 417.64 92.4398 417.64 91.3498H418.56C418.56 92.6498 418.27 94.0098 417.55 95.1398C418 95.5398 418.45 95.9398 418.94 96.2998L418.49 97.0998L418.51 97.0698ZM412.33 90.6198C411.01 91.4498 410.21 92.1598 410.21 93.8298C410.21 95.4998 411.71 96.3798 413.23 96.3798C414.35 96.3798 415.51 95.9998 416.31 95.1798C414.84 93.7998 413.52 92.2498 412.33 90.6198ZM413.14 85.1998C412.14 85.1998 411.55 85.8698 411.55 86.8498C411.55 87.7598 412.08 88.7198 412.6 89.4398C413.6 88.7898 414.61 88.0598 414.61 86.7398C414.61 85.8298 414.08 85.1998 413.14 85.1998Z" fill="white"/>
<path d="M434.29 97.2398C431.83 97.2398 429.92 96.3898 429.49 93.9098L430.39 93.7598C430.73 95.7698 432.51 96.3498 434.28 96.3498C435.95 96.3498 437.7 95.4798 437.7 93.5798C437.7 89.5798 429.95 91.9498 429.95 87.4598C429.95 85.2298 431.94 84.3098 433.88 84.3098C435.82 84.3098 437.34 84.9998 438.19 86.8298L437.36 87.2298C436.65 85.7098 435.48 85.2398 433.88 85.2398C432.49 85.2398 430.87 85.7798 430.87 87.4698C430.87 90.9698 438.62 88.7198 438.62 93.5898C438.62 95.9998 436.46 97.2498 434.27 97.2498L434.29 97.2398Z" fill="white"/>
<path d="M451.1 97.0699L449.62 93.2099H443.73L442.24 97.0699H441.26L446.1 84.4299H447.24L452.08 97.0699H451.1ZM446.66 85.4799L444.05 92.3499H449.28L446.65 85.4799H446.66Z" fill="white"/>
<path d="M455.43 97.0699V84.4299H456.35V96.2199H462.54V97.0699H455.42H455.43Z" fill="white"/>
<path d="M470.2 97.2399C466.71 97.2399 465.73 94.6699 465.73 91.6199V84.4299H466.65V91.6199C466.65 94.1199 467.25 96.3099 470.2 96.3099C473.15 96.3099 473.75 94.0999 473.75 91.6199V84.4299H474.67V91.6199C474.67 94.7899 473.69 97.2399 470.2 97.2399Z" fill="white"/>
<path d="M487.82 93.6699C487.37 96.6399 485.43 97.0699 482.8 97.0699H479.1V84.4299H482.78C485.42 84.4299 487.36 84.8599 487.82 87.8199C487.96 88.7999 487.96 89.7799 487.96 90.7499C487.96 91.7199 487.96 92.7099 487.82 93.6699ZM482.78 85.3399H480.03V96.1499H482.78C487.09 96.1499 487.04 94.4099 487.04 90.7499C487.04 87.0899 487.09 85.3299 482.78 85.3299V85.3399Z" fill="white"/>
</svg>
